# MagicaVoxel @ Ephtracy

# group
o 

# material
mtllib Emoji stuff7.mtl
usemtl palette

# normals
vn -1 0 0
vn 1 0 0
vn 0 0 1
vn 0 0 -1
vn 0 -1 0
vn 0 1 0

# texcoords
vt 0.208984 0.5
vt 0.541016 0.5
vt 0.689453 0.5
vt 0.693359 0.5
vt 0.986328 0.5
vt 0.990234 0.5

# verts
v -0.6 1.1 0.6
v -0.6 1.1 -0.6
v -0.6 2 0.6
v -0.6 2 0.5
v -0.6 2.1 0.5
v -0.6 2.1 0.4
v -0.6 2.2 0.6
v -0.6 2.2 0.4
v -0.6 2.2 -0.6
v -0.5 0.5 0.1
v -0.5 0.5 -0.1
v -0.5 0.9 0.1
v -0.5 0.9 -0.1
v -0.5 1.1 0.1
v -0.5 1.1 -0.1
v -0.5 2.2 0.3
v -0.5 2.2 -0.3
v -0.5 2.5 0.3
v -0.5 2.5 -0.3
v -0.3 0 0.2
v -0.3 0 -0.1
v -0.3 0.1 0.2
v -0.3 0.1 -0.1
v -0.3 0.5 0.1
v -0.3 0.5 -0.1
v -0.3 0.6 0.3
v -0.3 0.6 0.2
v -0.3 0.6 -0.1
v -0.3 0.6 -0.3
v -0.3 0.7 0.3
v -0.3 0.7 0.2
v -0.3 0.7 0.1
v -0.3 0.7 -0.1
v -0.3 0.7 -0.3
v -0.3 0.9 0.1
v -0.3 0.9 -0.1
v -0.3 1.1 0.3
v -0.3 1.1 0.1
v -0.3 1.1 -0.1
v -0.3 1.1 -0.3
v 0.1 0 0.2
v 0.1 0 -0.1
v 0.1 0.1 0.2
v 0.1 0.1 -0.1
v 0.1 0.6 0.2
v 0.1 0.6 -0.1
v 0.1 2.2 0.3
v 0.1 2.2 -0.3
v 0.1 2.5 0.3
v 0.1 2.5 -0.3
v -0.1 0 0.2
v -0.1 0 -0.1
v -0.1 0.1 0.2
v -0.1 0.1 -0.1
v -0.1 0.6 0.2
v -0.1 0.6 -0.1
v -0.1 2.2 0.3
v -0.1 2.2 -0.3
v -0.1 2.5 0.3
v -0.1 2.5 -0.3
v 0.3 0 0.2
v 0.3 0 -0.1
v 0.3 0.1 0.2
v 0.3 0.1 -0.1
v 0.3 0.5 0.1
v 0.3 0.5 -0.1
v 0.3 0.6 0.3
v 0.3 0.6 0.2
v 0.3 0.6 -0.1
v 0.3 0.6 -0.3
v 0.3 0.7 0.3
v 0.3 0.7 0.2
v 0.3 0.7 0.1
v 0.3 0.7 -0.1
v 0.3 0.7 -0.3
v 0.3 0.9 0.1
v 0.3 0.9 -0.1
v 0.3 1.1 0.3
v 0.3 1.1 0.1
v 0.3 1.1 -0.1
v 0.3 1.1 -0.3
v 0.5 0.5 0.1
v 0.5 0.5 -0.1
v 0.5 0.9 0.1
v 0.5 0.9 -0.1
v 0.5 1.1 0.1
v 0.5 1.1 -0.1
v 0.5 2.2 0.3
v 0.5 2.2 -0.3
v 0.5 2.5 0.3
v 0.5 2.5 -0.3
v 0.6 1.1 0.6
v 0.6 1.1 -0.6
v 0.6 2 0.6
v 0.6 2 0.5
v 0.6 2.1 0.5
v 0.6 2.1 0.4
v 0.6 2.2 0.6
v 0.6 2.2 0.4
v 0.6 2.2 -0.6
v -0.6 1.1 0.6
v -0.6 2 0.6
v -0.6 2.2 0.6
v -0.5 1.4 0.6
v -0.5 1.6 0.6
v -0.5 2 0.6
v -0.5 2.1 0.6
v -0.4 1.4 0.6
v -0.4 1.6 0.6
v -0.4 1.7 0.6
v -0.4 2.1 0.6
v -0.4 2.2 0.6
v -0.3 1.3 0.6
v -0.3 1.4 0.6
v -0.3 1.5 0.6
v -0.3 1.6 0.6
v -0.3 1.7 0.6
v -0.3 1.8 0.6
v -0.3 1.9 0.6
v -0.3 2 0.6
v -0.2 1.2 0.6
v -0.2 1.3 0.6
v -0.2 1.4 0.6
v -0.2 1.5 0.6
v -0.2 1.6 0.6
v -0.2 1.7 0.6
v -0.2 1.8 0.6
v -0.2 1.9 0.6
v -0.2 2 0.6
v -0.1 1.2 0.6
v -0.1 1.3 0.6
v -0.1 1.6 0.6
v -0.1 1.7 0.6
v -0.1 1.8 0.6
v -0.1 1.9 0.6
v 0.1 1.2 0.6
v 0.1 1.3 0.6
v 0.1 1.6 0.6
v 0.1 1.7 0.6
v 0.1 1.8 0.6
v 0.1 1.9 0.6
v 0.2 1.2 0.6
v 0.2 1.3 0.6
v 0.2 1.4 0.6
v 0.2 1.5 0.6
v 0.2 1.6 0.6
v 0.2 1.7 0.6
v 0.2 1.8 0.6
v 0.2 1.9 0.6
v 0.2 2 0.6
v 0.3 1.3 0.6
v 0.3 1.4 0.6
v 0.3 1.5 0.6
v 0.3 1.6 0.6
v 0.3 1.7 0.6
v 0.3 1.8 0.6
v 0.3 1.9 0.6
v 0.3 2 0.6
v 0.4 1.4 0.6
v 0.4 1.6 0.6
v 0.4 1.7 0.6
v 0.4 2.1 0.6
v 0.4 2.2 0.6
v 0.5 1.4 0.6
v 0.5 1.6 0.6
v 0.5 2 0.6
v 0.5 2.1 0.6
v 0.6 1.1 0.6
v 0.6 2 0.6
v 0.6 2.2 0.6
v -0.5 2.2 0.3
v -0.5 2.5 0.3
v -0.4 2.2 0.3
v -0.4 2.5 0.3
v -0.3 0.6 0.3
v -0.3 0.7 0.3
v -0.3 1.1 0.3
v -0.2 0.6 0.3
v -0.2 0.7 0.3
v -0.2 2.2 0.3
v -0.2 2.5 0.3
v -0.1 2.2 0.3
v -0.1 2.5 0.3
v 0.1 0.7 0.3
v 0.1 1.1 0.3
v 0.1 2.2 0.3
v 0.1 2.5 0.3
v 0.2 0.6 0.3
v 0.2 0.7 0.3
v 0.2 2.2 0.3
v 0.2 2.5 0.3
v 0.3 0.6 0.3
v 0.3 0.7 0.3
v 0.3 1.1 0.3
v 0.4 2.2 0.3
v 0.4 2.5 0.3
v 0.5 2.2 0.3
v 0.5 2.5 0.3
v -0.3 0 0.2
v -0.3 0.1 0.2
v -0.3 0.6 0.2
v -0.2 0.6 0.2
v -0.1 0 0.2
v -0.1 0.1 0.2
v -0.1 0.6 0.2
v 0.1 0 0.2
v 0.1 0.1 0.2
v 0.1 0.6 0.2
v 0.2 0 0.2
v 0.2 0.1 0.2
v 0.2 0.6 0.2
v 0.3 0 0.2
v 0.3 0.1 0.2
v 0.3 0.6 0.2
v -0.5 0.5 0.1
v -0.5 0.9 0.1
v -0.5 1.1 0.1
v -0.3 0.5 0.1
v -0.3 0.7 0.1
v -0.3 0.9 0.1
v -0.3 1.1 0.1
v 0.3 0.5 0.1
v 0.3 0.7 0.1
v 0.3 0.9 0.1
v 0.3 1.1 0.1
v 0.5 0.5 0.1
v 0.5 0.9 0.1
v 0.5 1.1 0.1
v -0.5 0.5 -0.1
v -0.5 0.9 -0.1
v -0.5 1.1 -0.1
v -0.3 0 -0.1
v -0.3 0.1 -0.1
v -0.3 0.5 -0.1
v -0.3 0.6 -0.1
v -0.3 0.7 -0.1
v -0.3 0.9 -0.1
v -0.3 1.1 -0.1
v -0.1 0 -0.1
v -0.1 0.1 -0.1
v -0.1 0.6 -0.1
v 0.1 0 -0.1
v 0.1 0.1 -0.1
v 0.1 0.6 -0.1
v 0.2 0 -0.1
v 0.2 0.1 -0.1
v 0.3 0 -0.1
v 0.3 0.1 -0.1
v 0.3 0.5 -0.1
v 0.3 0.6 -0.1
v 0.3 0.7 -0.1
v 0.3 0.9 -0.1
v 0.3 1.1 -0.1
v 0.5 0.5 -0.1
v 0.5 0.9 -0.1
v 0.5 1.1 -0.1
v -0.5 2.2 -0.3
v -0.5 2.5 -0.3
v -0.3 0.6 -0.3
v -0.3 0.7 -0.3
v -0.3 1.1 -0.3
v -0.1 2.2 -0.3
v -0.1 2.5 -0.3
v 0.1 0.7 -0.3
v 0.1 1.1 -0.3
v 0.1 2.2 -0.3
v 0.1 2.5 -0.3
v 0.3 0.6 -0.3
v 0.3 0.7 -0.3
v 0.3 1.1 -0.3
v 0.5 2.2 -0.3
v 0.5 2.5 -0.3
v -0.6 1.1 -0.6
v -0.6 2.2 -0.6
v 0.6 1.1 -0.6
v 0.6 2.2 -0.6
v -0.3 0 0.2
v -0.1 0 0.2
v 0.1 0 0.2
v 0.2 0 0.2
v 0.3 0 0.2
v -0.3 0 -0.1
v -0.1 0 -0.1
v 0.1 0 -0.1
v 0.2 0 -0.1
v 0.3 0 -0.1
v -0.5 0.5 0.1
v -0.3 0.5 0.1
v 0.3 0.5 0.1
v 0.5 0.5 0.1
v -0.5 0.5 -0.1
v -0.3 0.5 -0.1
v 0.3 0.5 -0.1
v 0.5 0.5 -0.1
v -0.3 0.6 0.3
v -0.2 0.6 0.3
v 0.2 0.6 0.3
v 0.3 0.6 0.3
v -0.3 0.6 0.2
v -0.2 0.6 0.2
v -0.1 0.6 0.2
v 0.1 0.6 0.2
v 0.2 0.6 0.2
v 0.3 0.6 0.2
v -0.3 0.6 -0.1
v -0.1 0.6 -0.1
v 0.1 0.6 -0.1
v 0.3 0.6 -0.1
v -0.3 0.6 -0.3
v 0.3 0.6 -0.3
v -0.6 1.1 0.6
v 0.6 1.1 0.6
v -0.3 1.1 0.3
v 0.1 1.1 0.3
v 0.3 1.1 0.3
v -0.5 1.1 0.1
v -0.3 1.1 0.1
v 0.3 1.1 0.1
v 0.5 1.1 0.1
v -0.5 1.1 -0.1
v -0.3 1.1 -0.1
v 0.3 1.1 -0.1
v 0.5 1.1 -0.1
v -0.3 1.1 -0.3
v 0.1 1.1 -0.3
v 0.3 1.1 -0.3
v -0.6 1.1 -0.6
v 0.6 1.1 -0.6
v -0.6 2.2 0.6
v -0.4 2.2 0.6
v 0.4 2.2 0.6
v 0.6 2.2 0.6
v -0.5 2.2 0.5
v -0.4 2.2 0.5
v 0.4 2.2 0.5
v 0.5 2.2 0.5
v -0.6 2.2 0.4
v -0.5 2.2 0.4
v 0.5 2.2 0.4
v 0.6 2.2 0.4
v -0.5 2.2 0.3
v -0.4 2.2 0.3
v -0.2 2.2 0.3
v -0.1 2.2 0.3
v 0.1 2.2 0.3
v 0.2 2.2 0.3
v 0.4 2.2 0.3
v 0.5 2.2 0.3
v -0.5 2.2 -0.3
v -0.1 2.2 -0.3
v 0.1 2.2 -0.3
v 0.5 2.2 -0.3
v -0.6 2.2 -0.6
v 0.6 2.2 -0.6
v -0.5 2.5 0.3
v -0.4 2.5 0.3
v -0.2 2.5 0.3
v -0.1 2.5 0.3
v 0.1 2.5 0.3
v 0.2 2.5 0.3
v 0.4 2.5 0.3
v 0.5 2.5 0.3
v -0.4 2.5 -0.2
v -0.2 2.5 -0.2
v 0.2 2.5 -0.2
v 0.4 2.5 -0.2
v -0.5 2.5 -0.3
v -0.1 2.5 -0.3
v 0.1 2.5 -0.3
v 0.5 2.5 -0.3

# faces
f 3/6/1 2/6/1 1/6/1
f 4/6/1 2/6/1 3/6/1
f 5/5/1 4/5/1 3/5/1
f 5/6/1 2/6/1 4/6/1
f 6/6/1 2/6/1 5/6/1
f 7/5/1 5/5/1 3/5/1
f 7/5/1 6/5/1 5/5/1
f 8/6/1 2/6/1 6/6/1
f 8/5/1 6/5/1 7/5/1
f 9/6/1 2/6/1 8/6/1
f 12/6/1 11/6/1 10/6/1
f 13/6/1 11/6/1 12/6/1
f 14/4/1 13/4/1 12/4/1
f 15/4/1 13/4/1 14/4/1
f 18/6/1 17/6/1 16/6/1
f 19/6/1 17/6/1 18/6/1
f 22/4/1 21/4/1 20/4/1
f 23/4/1 21/4/1 22/4/1
f 24/6/1 23/6/1 22/6/1
f 25/6/1 23/6/1 24/6/1
f 27/6/1 24/6/1 22/6/1
f 30/5/1 27/5/1 26/5/1
f 31/6/1 24/6/1 27/6/1
f 31/5/1 27/5/1 30/5/1
f 32/6/1 24/6/1 31/6/1
f 33/6/1 29/6/1 28/6/1
f 34/6/1 29/6/1 33/6/1
f 35/4/1 32/4/1 31/4/1
f 35/4/1 31/4/1 30/4/1
f 36/4/1 34/4/1 33/4/1
f 37/4/1 35/4/1 30/4/1
f 38/4/1 35/4/1 37/4/1
f 39/4/1 34/4/1 36/4/1
f 40/4/1 34/4/1 39/4/1
f 43/4/1 42/4/1 41/4/1
f 44/4/1 42/4/1 43/4/1
f 45/6/1 44/6/1 43/6/1
f 46/6/1 44/6/1 45/6/1
f 49/6/1 48/6/1 47/6/1
f 50/6/1 48/6/1 49/6/1
f 51/4/2 52/4/2 53/4/2
f 53/4/2 52/4/2 54/4/2
f 53/6/2 54/6/2 55/6/2
f 55/6/2 54/6/2 56/6/2
f 57/6/2 58/6/2 59/6/2
f 59/6/2 58/6/2 60/6/2
f 61/1/2 62/1/2 63/1/2
f 63/1/2 62/1/2 64/1/2
f 63/6/2 64/6/2 65/6/2
f 65/6/2 64/6/2 66/6/2
f 63/6/2 65/6/2 68/6/2
f 67/5/2 68/5/2 71/5/2
f 68/6/2 65/6/2 72/6/2
f 71/5/2 68/5/2 72/5/2
f 72/6/2 65/6/2 73/6/2
f 69/6/2 70/6/2 74/6/2
f 74/6/2 70/6/2 75/6/2
f 72/1/2 73/1/2 76/1/2
f 71/1/2 72/1/2 76/1/2
f 74/1/2 75/1/2 77/1/2
f 71/1/2 76/1/2 78/1/2
f 78/1/2 76/1/2 79/1/2
f 77/1/2 75/1/2 80/1/2
f 80/1/2 75/1/2 81/1/2
f 82/6/2 83/6/2 84/6/2
f 84/6/2 83/6/2 85/6/2
f 84/1/2 85/1/2 86/1/2
f 86/1/2 85/1/2 87/1/2
f 88/6/2 89/6/2 90/6/2
f 90/6/2 89/6/2 91/6/2
f 92/6/2 93/6/2 94/6/2
f 94/6/2 93/6/2 95/6/2
f 94/5/2 95/5/2 96/5/2
f 95/6/2 93/6/2 96/6/2
f 96/6/2 93/6/2 97/6/2
f 94/5/2 96/5/2 98/5/2
f 96/5/2 97/5/2 98/5/2
f 97/6/2 93/6/2 99/6/2
f 98/5/2 97/5/2 99/5/2
f 99/6/2 93/6/2 100/6/2
f 104/6/3 102/6/3 101/6/3
f 105/6/3 102/6/3 104/6/3
f 106/5/3 103/5/3 102/5/3
f 106/6/3 102/6/3 105/6/3
f 107/5/3 103/5/3 106/5/3
f 108/3/3 105/3/3 104/3/3
f 108/6/3 104/6/3 101/6/3
f 109/6/3 107/6/3 106/6/3
f 109/3/3 105/3/3 108/3/3
f 109/6/3 106/6/3 105/6/3
f 110/6/3 107/6/3 109/6/3
f 111/5/3 103/5/3 107/5/3
f 111/6/3 107/6/3 110/6/3
f 112/5/3 103/5/3 111/5/3
f 113/6/3 108/6/3 101/6/3
f 113/6/3 109/6/3 108/6/3
f 114/6/3 109/6/3 113/6/3
f 115/6/3 109/6/3 114/6/3
f 116/3/3 110/3/3 109/3/3
f 116/6/3 109/6/3 115/6/3
f 117/6/3 112/6/3 111/6/3
f 117/3/3 110/3/3 116/3/3
f 117/6/3 111/6/3 110/6/3
f 118/6/3 112/6/3 117/6/3
f 119/6/3 112/6/3 118/6/3
f 120/6/3 112/6/3 119/6/3
f 121/6/3 113/6/3 101/6/3
f 122/3/3 114/3/3 113/3/3
f 122/6/3 113/6/3 121/6/3
f 123/6/3 115/6/3 114/6/3
f 123/3/3 114/3/3 122/3/3
f 124/3/3 116/3/3 115/3/3
f 124/6/3 115/6/3 123/6/3
f 124/3/3 117/3/3 116/3/3
f 124/3/3 118/3/3 117/3/3
f 125/3/3 118/3/3 124/3/3
f 126/3/3 118/3/3 125/3/3
f 127/6/3 119/6/3 118/6/3
f 127/3/3 118/3/3 126/3/3
f 128/3/3 120/3/3 119/3/3
f 128/6/3 119/6/3 127/6/3
f 129/6/3 112/6/3 120/6/3
f 129/3/3 120/3/3 128/3/3
f 130/3/3 122/3/3 121/3/3
f 130/6/3 121/6/3 101/6/3
f 131/6/3 123/6/3 122/6/3
f 131/3/3 122/3/3 130/3/3
f 132/6/3 126/6/3 125/6/3
f 132/3/3 124/3/3 123/3/3
f 132/3/3 125/3/3 124/3/3
f 133/3/3 128/3/3 127/3/3
f 133/6/3 126/6/3 132/6/3
f 133/3/3 127/3/3 126/3/3
f 134/3/3 128/3/3 133/3/3
f 135/6/3 129/6/3 128/6/3
f 135/3/3 128/3/3 134/3/3
f 136/6/3 130/6/3 101/6/3
f 136/6/3 131/6/3 130/6/3
f 137/6/3 123/6/3 131/6/3
f 137/6/3 131/6/3 136/6/3
f 138/3/3 134/3/3 133/3/3
f 138/3/3 132/3/3 123/3/3
f 138/3/3 133/3/3 132/3/3
f 139/3/3 134/3/3 138/3/3
f 140/6/3 135/6/3 134/6/3
f 140/3/3 134/3/3 139/3/3
f 141/6/3 129/6/3 135/6/3
f 141/6/3 135/6/3 140/6/3
f 142/3/3 137/3/3 136/3/3
f 142/6/3 136/6/3 101/6/3
f 143/6/3 123/6/3 137/6/3
f 143/3/3 137/3/3 142/3/3
f 144/3/3 138/3/3 123/3/3
f 144/6/3 123/6/3 143/6/3
f 145/3/3 138/3/3 144/3/3
f 146/6/3 139/6/3 138/6/3
f 146/3/3 138/3/3 145/3/3
f 147/3/3 140/3/3 139/3/3
f 147/6/3 139/6/3 146/6/3
f 147/3/3 141/3/3 140/3/3
f 148/3/3 141/3/3 147/3/3
f 149/6/3 129/6/3 141/6/3
f 149/3/3 141/3/3 148/3/3
f 150/6/3 112/6/3 129/6/3
f 150/6/3 129/6/3 149/6/3
f 151/3/3 144/3/3 143/3/3
f 151/6/3 143/6/3 142/6/3
f 152/6/3 145/6/3 144/6/3
f 152/3/3 144/3/3 151/3/3
f 153/3/3 146/3/3 145/3/3
f 153/6/3 145/6/3 152/6/3
f 153/3/3 148/3/3 147/3/3
f 153/3/3 147/3/3 146/3/3
f 154/3/3 148/3/3 153/3/3
f 155/3/3 148/3/3 154/3/3
f 156/6/3 149/6/3 148/6/3
f 156/3/3 148/3/3 155/3/3
f 157/3/3 150/3/3 149/3/3
f 157/6/3 149/6/3 156/6/3
f 158/6/3 112/6/3 150/6/3
f 158/3/3 150/3/3 157/3/3
f 159/6/3 152/6/3 151/6/3
f 159/6/3 153/6/3 152/6/3
f 159/6/3 154/6/3 153/6/3
f 160/3/3 155/3/3 154/3/3
f 160/6/3 154/6/3 159/6/3
f 161/6/3 156/6/3 155/6/3
f 161/3/3 155/3/3 160/3/3
f 161/6/3 157/6/3 156/6/3
f 161/6/3 158/6/3 157/6/3
f 162/6/3 112/6/3 158/6/3
f 162/6/3 158/6/3 161/6/3
f 163/6/3 112/6/3 162/6/3
f 164/6/3 159/6/3 151/6/3
f 164/3/3 160/3/3 159/3/3
f 165/6/3 161/6/3 160/6/3
f 165/3/3 160/3/3 164/3/3
f 165/6/3 162/6/3 161/6/3
f 166/6/3 162/6/3 165/6/3
f 167/5/3 163/5/3 162/5/3
f 167/6/3 162/6/3 166/6/3
f 168/6/3 164/6/3 151/6/3
f 168/6/3 142/6/3 101/6/3
f 168/6/3 166/6/3 165/6/3
f 168/6/3 165/6/3 164/6/3
f 168/6/3 151/6/3 142/6/3
f 169/5/3 167/5/3 166/5/3
f 169/6/3 166/6/3 168/6/3
f 170/5/3 163/5/3 167/5/3
f 170/5/3 167/5/3 169/5/3
f 173/6/3 172/6/3 171/6/3
f 174/6/3 172/6/3 173/6/3
f 178/5/3 176/5/3 175/5/3
f 179/4/3 177/4/3 176/4/3
f 179/5/3 176/5/3 178/5/3
f 180/3/3 174/3/3 173/3/3
f 181/3/3 174/3/3 180/3/3
f 182/6/3 181/6/3 180/6/3
f 183/6/3 181/6/3 182/6/3
f 184/4/3 177/4/3 179/4/3
f 184/6/3 179/6/3 178/6/3
f 185/4/3 177/4/3 184/4/3
f 188/6/3 184/6/3 178/6/3
f 189/1/3 185/1/3 184/1/3
f 189/6/3 184/6/3 188/6/3
f 190/6/3 187/6/3 186/6/3
f 191/6/3 187/6/3 190/6/3
f 192/5/3 189/5/3 188/5/3
f 193/1/3 185/1/3 189/1/3
f 193/5/3 189/5/3 192/5/3
f 194/1/3 185/1/3 193/1/3
f 195/3/3 191/3/3 190/3/3
f 196/3/3 191/3/3 195/3/3
f 197/6/3 196/6/3 195/6/3
f 198/6/3 196/6/3 197/6/3
f 202/6/3 201/6/3 200/6/3
f 203/4/3 200/4/3 199/4/3
f 204/6/3 202/6/3 200/6/3
f 204/4/3 200/4/3 203/4/3
f 205/6/3 202/6/3 204/6/3
f 209/4/3 207/4/3 206/4/3
f 210/6/3 208/6/3 207/6/3
f 210/4/3 207/4/3 209/4/3
f 211/6/3 208/6/3 210/6/3
f 212/1/3 210/1/3 209/1/3
f 213/6/3 211/6/3 210/6/3
f 213/1/3 210/1/3 212/1/3
f 214/6/3 211/6/3 213/6/3
f 218/6/3 216/6/3 215/6/3
f 219/6/3 216/6/3 218/6/3
f 220/4/3 217/4/3 216/4/3
f 220/6/3 216/6/3 219/6/3
f 221/4/3 217/4/3 220/4/3
f 226/6/3 223/6/3 222/6/3
f 226/6/3 224/6/3 223/6/3
f 227/1/3 225/1/3 224/1/3
f 227/6/3 224/6/3 226/6/3
f 228/1/3 225/1/3 227/1/3
f 229/6/4 230/6/4 234/6/4
f 234/6/4 230/6/4 235/6/4
f 235/6/4 230/6/4 236/6/4
f 230/4/4 231/4/4 237/4/4
f 236/6/4 230/6/4 237/6/4
f 237/4/4 231/4/4 238/4/4
f 232/4/4 233/4/4 239/4/4
f 234/6/4 235/6/4 240/6/4
f 239/4/4 233/4/4 240/4/4
f 233/6/4 234/6/4 240/6/4
f 240/6/4 235/6/4 241/6/4
f 242/4/4 243/4/4 245/4/4
f 243/6/4 244/6/4 246/6/4
f 245/4/4 243/4/4 246/4/4
f 245/1/4 246/1/4 247/1/4
f 246/6/4 244/6/4 248/6/4
f 247/1/4 246/1/4 248/1/4
f 248/6/4 244/6/4 249/6/4
f 249/6/4 244/6/4 250/6/4
f 249/6/4 250/6/4 254/6/4
f 251/6/4 252/6/4 254/6/4
f 250/6/4 251/6/4 254/6/4
f 252/1/4 253/1/4 255/1/4
f 254/6/4 252/6/4 255/6/4
f 255/1/4 253/1/4 256/1/4
f 257/6/4 258/6/4 262/6/4
f 262/6/4 258/6/4 263/6/4
f 260/4/4 261/4/4 264/4/4
f 259/6/4 260/6/4 264/6/4
f 264/4/4 261/4/4 265/4/4
f 259/6/4 264/6/4 268/6/4
f 264/1/4 265/1/4 269/1/4
f 268/6/4 264/6/4 269/6/4
f 269/1/4 265/1/4 270/1/4
f 266/6/4 267/6/4 271/6/4
f 271/6/4 267/6/4 272/6/4
f 273/6/4 274/6/4 275/6/4
f 275/6/4 274/6/4 276/6/4
f 282/4/5 278/4/5 277/4/5
f 283/4/5 278/4/5 282/4/5
f 284/4/5 280/4/5 279/4/5
f 285/1/5 281/1/5 280/1/5
f 285/4/5 280/4/5 284/4/5
f 286/1/5 281/1/5 285/1/5
f 291/6/5 288/6/5 287/6/5
f 292/6/5 288/6/5 291/6/5
f 293/6/5 290/6/5 289/6/5
f 294/6/5 290/6/5 293/6/5
f 299/5/5 296/5/5 295/5/5
f 300/6/5 297/6/5 296/6/5
f 300/5/5 296/5/5 299/5/5
f 301/6/5 297/6/5 300/6/5
f 302/6/5 297/6/5 301/6/5
f 303/5/5 298/5/5 297/5/5
f 303/6/5 297/6/5 302/6/5
f 304/5/5 298/5/5 303/5/5
f 306/6/5 302/6/5 301/6/5
f 307/6/5 302/6/5 306/6/5
f 309/6/5 306/6/5 305/6/5
f 309/6/5 308/6/5 307/6/5
f 309/6/5 307/6/5 306/6/5
f 310/6/5 308/6/5 309/6/5
f 313/6/5 312/6/5 311/6/5
f 314/6/5 312/6/5 313/6/5
f 315/6/5 312/6/5 314/6/5
f 316/6/5 313/6/5 311/6/5
f 317/6/5 313/6/5 316/6/5
f 318/6/5 312/6/5 315/6/5
f 319/6/5 312/6/5 318/6/5
f 320/6/5 316/6/5 311/6/5
f 323/6/5 312/6/5 319/6/5
f 324/6/5 321/6/5 320/6/5
f 326/6/5 323/6/5 322/6/5
f 327/6/5 325/6/5 324/6/5
f 327/6/5 326/6/5 325/6/5
f 327/6/5 320/6/5 311/6/5
f 327/6/5 324/6/5 320/6/5
f 328/6/5 323/6/5 326/6/5
f 328/6/5 326/6/5 327/6/5
f 328/6/5 312/6/5 323/6/5
f 329/5/6 330/5/6 333/5/6
f 330/6/6 331/6/6 334/6/6
f 333/5/6 330/5/6 334/5/6
f 331/5/6 332/5/6 335/5/6
f 334/6/6 331/6/6 335/6/6
f 335/5/6 332/5/6 336/5/6
f 329/5/6 333/5/6 337/5/6
f 333/6/6 334/6/6 338/6/6
f 337/5/6 333/5/6 338/5/6
f 334/6/6 335/6/6 338/6/6
f 335/6/6 336/6/6 338/6/6
f 336/5/6 332/5/6 339/5/6
f 338/6/6 336/6/6 339/6/6
f 339/5/6 332/5/6 340/5/6
f 337/6/6 338/6/6 341/6/6
f 338/6/6 339/6/6 341/6/6
f 339/6/6 340/6/6 341/6/6
f 341/6/6 340/6/6 342/6/6
f 342/6/6 340/6/6 343/6/6
f 343/6/6 340/6/6 344/6/6
f 344/6/6 340/6/6 345/6/6
f 345/6/6 340/6/6 346/6/6
f 346/6/6 340/6/6 347/6/6
f 347/6/6 340/6/6 348/6/6
f 337/6/6 341/6/6 349/6/6
f 344/6/6 345/6/6 350/6/6
f 350/6/6 345/6/6 351/6/6
f 348/6/6 340/6/6 352/6/6
f 350/6/6 351/6/6 353/6/6
f 351/6/6 352/6/6 353/6/6
f 337/6/6 349/6/6 353/6/6
f 349/6/6 350/6/6 353/6/6
f 352/6/6 340/6/6 354/6/6
f 353/6/6 352/6/6 354/6/6
f 355/6/6 356/6/6 363/6/6
f 356/3/6 357/3/6 363/3/6
f 357/6/6 358/6/6 364/6/6
f 363/3/6 357/3/6 364/3/6
f 360/3/6 361/3/6 365/3/6
f 359/6/6 360/6/6 365/6/6
f 361/6/6 362/6/6 366/6/6
f 365/3/6 361/3/6 366/3/6
f 355/6/6 363/6/6 367/6/6
f 363/6/6 364/6/6 367/6/6
f 364/6/6 358/6/6 368/6/6
f 367/6/6 364/6/6 368/6/6
f 359/6/6 365/6/6 369/6/6
f 365/6/6 366/6/6 369/6/6
f 366/6/6 362/6/6 370/6/6
f 369/6/6 366/6/6 370/6/6
