# MagicaVoxel @ Ephtracy

# group
o 

# material
mtllib Emoji stuff.mtl
usemtl palette

# normals
vn -1 0 0
vn 1 0 0
vn 0 0 1
vn 0 0 -1
vn 0 -1 0
vn 0 1 0

# texcoords
vt 0.376953 0.5
vt 0.423828 0.5
vt 0.541016 0.5
vt 0.986328 0.5
vt 0.990234 0.5

# verts
v -0.6 1.1 0.6
v -0.6 1.1 -0.6
v -0.6 2 0.6
v -0.6 2 0.5
v -0.6 2.1 0.5
v -0.6 2.1 0.4
v -0.6 2.2 0.6
v -0.6 2.2 0.4
v -0.6 2.2 -0.6
v -0.5 0.5 0.1
v -0.5 0.5 -0.1
v -0.5 0.9 0.1
v -0.5 0.9 -0.1
v -0.5 1.1 0.1
v -0.5 1.1 -0.1
v -0.5 2.2 0.3
v -0.5 2.2 -0.3
v -0.5 2.5 0.3
v -0.5 2.5 -0.3
v -0.3 0 0.2
v -0.3 0 -0.1
v -0.3 0.1 0.2
v -0.3 0.1 -0.1
v -0.3 0.5 0.1
v -0.3 0.5 -0.1
v -0.3 0.6 0.3
v -0.3 0.6 0.2
v -0.3 0.6 -0.1
v -0.3 0.6 -0.3
v -0.3 0.7 0.3
v -0.3 0.7 0.2
v -0.3 0.7 0.1
v -0.3 0.7 -0.1
v -0.3 0.7 -0.3
v -0.3 0.9 0.1
v -0.3 0.9 -0.1
v -0.3 1.1 0.3
v -0.3 1.1 0.1
v -0.3 1.1 -0.1
v -0.3 1.1 -0.3
v 0.1 0 0.2
v 0.1 0 -0.1
v 0.1 0.1 0.2
v 0.1 0.1 -0.1
v 0.1 0.6 0.2
v 0.1 0.6 -0.1
v 0.1 2.2 0.3
v 0.1 2.2 -0.3
v 0.1 2.5 0.3
v 0.1 2.5 -0.3
v -0.1 0 0.2
v -0.1 0 -0.1
v -0.1 0.1 0.2
v -0.1 0.1 -0.1
v -0.1 0.6 0.2
v -0.1 0.6 -0.1
v -0.1 2.2 0.3
v -0.1 2.2 -0.3
v -0.1 2.5 0.3
v -0.1 2.5 -0.3
v 0.3 0 0.2
v 0.3 0 -0.1
v 0.3 0.1 0.2
v 0.3 0.1 -0.1
v 0.3 0.5 0.1
v 0.3 0.5 -0.1
v 0.3 0.6 0.3
v 0.3 0.6 0.2
v 0.3 0.6 -0.1
v 0.3 0.6 -0.3
v 0.3 0.7 0.3
v 0.3 0.7 0.2
v 0.3 0.7 0.1
v 0.3 0.7 -0.1
v 0.3 0.7 -0.3
v 0.3 0.9 0.1
v 0.3 0.9 -0.1
v 0.3 1.1 0.3
v 0.3 1.1 0.1
v 0.3 1.1 -0.1
v 0.3 1.1 -0.3
v 0.5 0.5 0.1
v 0.5 0.5 -0.1
v 0.5 0.9 0.1
v 0.5 0.9 -0.1
v 0.5 1.1 0.1
v 0.5 1.1 -0.1
v 0.5 2.2 0.3
v 0.5 2.2 -0.3
v 0.5 2.5 0.3
v 0.5 2.5 -0.3
v 0.6 1.1 0.6
v 0.6 1.1 -0.6
v 0.6 2 0.6
v 0.6 2 0.5
v 0.6 2.1 0.5
v 0.6 2.1 0.4
v 0.6 2.2 0.6
v 0.6 2.2 0.4
v 0.6 2.2 -0.6
v -0.6 1.1 0.6
v -0.6 2 0.6
v -0.6 2.2 0.6
v -0.5 1.5 0.6
v -0.5 1.8 0.6
v -0.5 2 0.6
v -0.5 2.1 0.6
v -0.4 1.4 0.6
v -0.4 1.5 0.6
v -0.4 1.8 0.6
v -0.4 1.9 0.6
v -0.4 2.1 0.6
v -0.4 2.2 0.6
v -0.3 1.3 0.6
v -0.3 1.4 0.6
v -0.3 1.5 0.6
v -0.3 1.6 0.6
v -0.3 1.8 0.6
v -0.3 1.9 0.6
v -0.3 2 0.6
v -0.2 1.2 0.6
v -0.2 1.3 0.6
v -0.2 1.4 0.6
v -0.2 1.5 0.6
v -0.2 1.6 0.6
v -0.2 1.8 0.6
v -0.2 2 0.6
v -0.2 2.1 0.6
v 0.2 1.2 0.6
v 0.2 1.3 0.6
v 0.2 1.4 0.6
v 0.2 1.5 0.6
v 0.2 1.6 0.6
v 0.2 1.8 0.6
v 0.2 2 0.6
v 0.2 2.1 0.6
v 0.3 1.3 0.6
v 0.3 1.4 0.6
v 0.3 1.5 0.6
v 0.3 1.6 0.6
v 0.3 1.8 0.6
v 0.3 1.9 0.6
v 0.3 2 0.6
v 0.4 1.4 0.6
v 0.4 1.5 0.6
v 0.4 1.8 0.6
v 0.4 1.9 0.6
v 0.4 2.1 0.6
v 0.4 2.2 0.6
v 0.5 1.5 0.6
v 0.5 1.8 0.6
v 0.5 2 0.6
v 0.5 2.1 0.6
v 0.6 1.1 0.6
v 0.6 2 0.6
v 0.6 2.2 0.6
v -0.5 2.2 0.3
v -0.5 2.5 0.3
v -0.4 2.2 0.3
v -0.4 2.5 0.3
v -0.3 0.6 0.3
v -0.3 0.7 0.3
v -0.3 1.1 0.3
v -0.2 0.6 0.3
v -0.2 0.7 0.3
v -0.2 2.2 0.3
v -0.2 2.5 0.3
v -0.1 2.2 0.3
v -0.1 2.5 0.3
v 0.1 2.2 0.3
v 0.1 2.5 0.3
v 0.2 0.6 0.3
v 0.2 0.7 0.3
v 0.2 2.2 0.3
v 0.2 2.5 0.3
v 0.3 0.6 0.3
v 0.3 0.7 0.3
v 0.3 1.1 0.3
v 0.4 2.2 0.3
v 0.4 2.5 0.3
v 0.5 2.2 0.3
v 0.5 2.5 0.3
v -0.3 0 0.2
v -0.3 0.1 0.2
v -0.3 0.6 0.2
v -0.2 0.6 0.2
v -0.1 0 0.2
v -0.1 0.1 0.2
v -0.1 0.6 0.2
v 0.1 0 0.2
v 0.1 0.1 0.2
v 0.1 0.6 0.2
v 0.2 0.6 0.2
v 0.3 0 0.2
v 0.3 0.1 0.2
v 0.3 0.6 0.2
v -0.5 0.5 0.1
v -0.5 0.9 0.1
v -0.5 1.1 0.1
v -0.3 0.5 0.1
v -0.3 0.7 0.1
v -0.3 0.9 0.1
v -0.3 1.1 0.1
v 0.3 0.5 0.1
v 0.3 0.7 0.1
v 0.3 0.9 0.1
v 0.3 1.1 0.1
v 0.5 0.5 0.1
v 0.5 0.9 0.1
v 0.5 1.1 0.1
v -0.5 0.5 -0.1
v -0.5 0.9 -0.1
v -0.5 1.1 -0.1
v -0.3 0 -0.1
v -0.3 0.1 -0.1
v -0.3 0.5 -0.1
v -0.3 0.6 -0.1
v -0.3 0.7 -0.1
v -0.3 0.9 -0.1
v -0.3 1.1 -0.1
v -0.1 0 -0.1
v -0.1 0.1 -0.1
v -0.1 0.6 -0.1
v 0.1 0 -0.1
v 0.1 0.1 -0.1
v 0.1 0.6 -0.1
v 0.3 0 -0.1
v 0.3 0.1 -0.1
v 0.3 0.5 -0.1
v 0.3 0.6 -0.1
v 0.3 0.7 -0.1
v 0.3 0.9 -0.1
v 0.3 1.1 -0.1
v 0.5 0.5 -0.1
v 0.5 0.9 -0.1
v 0.5 1.1 -0.1
v -0.5 2.2 -0.3
v -0.5 2.5 -0.3
v -0.3 0.6 -0.3
v -0.3 0.7 -0.3
v -0.3 1.1 -0.3
v -0.1 2.2 -0.3
v -0.1 2.5 -0.3
v 0.1 2.2 -0.3
v 0.1 2.5 -0.3
v 0.3 0.6 -0.3
v 0.3 0.7 -0.3
v 0.3 1.1 -0.3
v 0.5 2.2 -0.3
v 0.5 2.5 -0.3
v -0.6 1.1 -0.6
v -0.6 2.2 -0.6
v 0.6 1.1 -0.6
v 0.6 2.2 -0.6
v -0.3 0 0.2
v -0.1 0 0.2
v 0.1 0 0.2
v 0.3 0 0.2
v -0.3 0 -0.1
v -0.1 0 -0.1
v 0.1 0 -0.1
v 0.3 0 -0.1
v -0.5 0.5 0.1
v -0.3 0.5 0.1
v 0.3 0.5 0.1
v 0.5 0.5 0.1
v -0.5 0.5 -0.1
v -0.3 0.5 -0.1
v 0.3 0.5 -0.1
v 0.5 0.5 -0.1
v -0.3 0.6 0.3
v -0.2 0.6 0.3
v 0.2 0.6 0.3
v 0.3 0.6 0.3
v -0.3 0.6 0.2
v -0.2 0.6 0.2
v -0.1 0.6 0.2
v 0.1 0.6 0.2
v 0.2 0.6 0.2
v 0.3 0.6 0.2
v -0.3 0.6 -0.1
v -0.1 0.6 -0.1
v 0.1 0.6 -0.1
v 0.3 0.6 -0.1
v -0.3 0.6 -0.3
v 0.3 0.6 -0.3
v -0.6 1.1 0.6
v 0.6 1.1 0.6
v -0.3 1.1 0.3
v 0.3 1.1 0.3
v -0.5 1.1 0.1
v -0.3 1.1 0.1
v 0.3 1.1 0.1
v 0.5 1.1 0.1
v -0.5 1.1 -0.1
v -0.3 1.1 -0.1
v 0.3 1.1 -0.1
v 0.5 1.1 -0.1
v -0.3 1.1 -0.3
v 0.3 1.1 -0.3
v -0.6 1.1 -0.6
v 0.6 1.1 -0.6
v -0.6 2.2 0.6
v -0.4 2.2 0.6
v 0.4 2.2 0.6
v 0.6 2.2 0.6
v -0.5 2.2 0.5
v -0.4 2.2 0.5
v 0.4 2.2 0.5
v 0.5 2.2 0.5
v -0.6 2.2 0.4
v -0.5 2.2 0.4
v 0.5 2.2 0.4
v 0.6 2.2 0.4
v -0.5 2.2 0.3
v -0.4 2.2 0.3
v -0.2 2.2 0.3
v -0.1 2.2 0.3
v 0.1 2.2 0.3
v 0.2 2.2 0.3
v 0.4 2.2 0.3
v 0.5 2.2 0.3
v -0.5 2.2 -0.3
v -0.1 2.2 -0.3
v 0.1 2.2 -0.3
v 0.5 2.2 -0.3
v -0.6 2.2 -0.6
v 0.6 2.2 -0.6
v -0.5 2.5 0.3
v -0.4 2.5 0.3
v -0.2 2.5 0.3
v -0.1 2.5 0.3
v 0.1 2.5 0.3
v 0.2 2.5 0.3
v 0.4 2.5 0.3
v 0.5 2.5 0.3
v -0.4 2.5 -0.2
v -0.2 2.5 -0.2
v 0.2 2.5 -0.2
v 0.4 2.5 -0.2
v -0.5 2.5 -0.3
v -0.1 2.5 -0.3
v 0.1 2.5 -0.3
v 0.5 2.5 -0.3

# faces
f 3/5/1 2/5/1 1/5/1
f 4/5/1 2/5/1 3/5/1
f 5/4/1 4/4/1 3/4/1
f 5/5/1 2/5/1 4/5/1
f 6/5/1 2/5/1 5/5/1
f 7/4/1 5/4/1 3/4/1
f 7/4/1 6/4/1 5/4/1
f 8/5/1 2/5/1 6/5/1
f 8/4/1 6/4/1 7/4/1
f 9/5/1 2/5/1 8/5/1
f 12/5/1 11/5/1 10/5/1
f 13/5/1 11/5/1 12/5/1
f 14/1/1 13/1/1 12/1/1
f 15/1/1 13/1/1 14/1/1
f 18/5/1 17/5/1 16/5/1
f 19/5/1 17/5/1 18/5/1
f 22/1/1 21/1/1 20/1/1
f 23/1/1 21/1/1 22/1/1
f 24/5/1 23/5/1 22/5/1
f 25/5/1 23/5/1 24/5/1
f 27/5/1 24/5/1 22/5/1
f 30/4/1 27/4/1 26/4/1
f 31/5/1 24/5/1 27/5/1
f 31/4/1 27/4/1 30/4/1
f 32/5/1 24/5/1 31/5/1
f 33/5/1 29/5/1 28/5/1
f 34/5/1 29/5/1 33/5/1
f 35/1/1 32/1/1 31/1/1
f 35/1/1 31/1/1 30/1/1
f 36/1/1 34/1/1 33/1/1
f 37/1/1 35/1/1 30/1/1
f 38/1/1 35/1/1 37/1/1
f 39/1/1 34/1/1 36/1/1
f 40/1/1 34/1/1 39/1/1
f 43/1/1 42/1/1 41/1/1
f 44/1/1 42/1/1 43/1/1
f 45/5/1 44/5/1 43/5/1
f 46/5/1 44/5/1 45/5/1
f 49/5/1 48/5/1 47/5/1
f 50/5/1 48/5/1 49/5/1
f 51/1/2 52/1/2 53/1/2
f 53/1/2 52/1/2 54/1/2
f 53/5/2 54/5/2 55/5/2
f 55/5/2 54/5/2 56/5/2
f 57/5/2 58/5/2 59/5/2
f 59/5/2 58/5/2 60/5/2
f 61/1/2 62/1/2 63/1/2
f 63/1/2 62/1/2 64/1/2
f 63/5/2 64/5/2 65/5/2
f 65/5/2 64/5/2 66/5/2
f 63/5/2 65/5/2 68/5/2
f 67/4/2 68/4/2 71/4/2
f 68/5/2 65/5/2 72/5/2
f 71/4/2 68/4/2 72/4/2
f 72/5/2 65/5/2 73/5/2
f 69/5/2 70/5/2 74/5/2
f 74/5/2 70/5/2 75/5/2
f 72/1/2 73/1/2 76/1/2
f 71/1/2 72/1/2 76/1/2
f 74/1/2 75/1/2 77/1/2
f 71/1/2 76/1/2 78/1/2
f 78/1/2 76/1/2 79/1/2
f 77/1/2 75/1/2 80/1/2
f 80/1/2 75/1/2 81/1/2
f 82/5/2 83/5/2 84/5/2
f 84/5/2 83/5/2 85/5/2
f 84/1/2 85/1/2 86/1/2
f 86/1/2 85/1/2 87/1/2
f 88/5/2 89/5/2 90/5/2
f 90/5/2 89/5/2 91/5/2
f 92/5/2 93/5/2 94/5/2
f 94/5/2 93/5/2 95/5/2
f 94/4/2 95/4/2 96/4/2
f 95/5/2 93/5/2 96/5/2
f 96/5/2 93/5/2 97/5/2
f 94/4/2 96/4/2 98/4/2
f 96/4/2 97/4/2 98/4/2
f 97/5/2 93/5/2 99/5/2
f 98/4/2 97/4/2 99/4/2
f 99/5/2 93/5/2 100/5/2
f 104/5/3 102/5/3 101/5/3
f 105/5/3 102/5/3 104/5/3
f 106/4/3 103/4/3 102/4/3
f 106/5/3 102/5/3 105/5/3
f 107/4/3 103/4/3 106/4/3
f 108/5/3 104/5/3 101/5/3
f 109/2/3 105/2/3 104/2/3
f 109/5/3 104/5/3 108/5/3
f 110/5/3 106/5/3 105/5/3
f 110/2/3 105/2/3 109/2/3
f 110/5/3 107/5/3 106/5/3
f 111/5/3 107/5/3 110/5/3
f 112/4/3 103/4/3 107/4/3
f 112/5/3 107/5/3 111/5/3
f 113/4/3 103/4/3 112/4/3
f 114/5/3 108/5/3 101/5/3
f 115/2/3 111/2/3 110/2/3
f 115/5/3 108/5/3 114/5/3
f 115/2/3 109/2/3 108/2/3
f 115/2/3 110/2/3 109/2/3
f 116/2/3 111/2/3 115/2/3
f 117/2/3 111/2/3 116/2/3
f 118/2/3 111/2/3 117/2/3
f 119/5/3 113/5/3 112/5/3
f 119/2/3 111/2/3 118/2/3
f 119/5/3 112/5/3 111/5/3
f 120/5/3 113/5/3 119/5/3
f 121/5/3 114/5/3 101/5/3
f 122/2/3 115/2/3 114/2/3
f 122/5/3 114/5/3 121/5/3
f 123/5/3 116/5/3 115/5/3
f 123/2/3 115/2/3 122/2/3
f 124/2/3 117/2/3 116/2/3
f 124/5/3 116/5/3 123/5/3
f 125/5/3 118/5/3 117/5/3
f 125/2/3 117/2/3 124/2/3
f 126/2/3 119/2/3 118/2/3
f 126/5/3 118/5/3 125/5/3
f 126/2/3 120/2/3 119/2/3
f 127/5/3 113/5/3 120/5/3
f 127/2/3 120/2/3 126/2/3
f 128/5/3 113/5/3 127/5/3
f 129/5/3 121/5/3 101/5/3
f 129/2/3 122/2/3 121/2/3
f 130/5/3 123/5/3 122/5/3
f 130/2/3 122/2/3 129/2/3
f 131/2/3 126/2/3 125/2/3
f 131/5/3 123/5/3 130/5/3
f 131/2/3 124/2/3 123/2/3
f 131/2/3 127/2/3 126/2/3
f 131/2/3 125/2/3 124/2/3
f 131/2/3 128/2/3 127/2/3
f 132/2/3 128/2/3 131/2/3
f 133/2/3 128/2/3 132/2/3
f 134/2/3 128/2/3 133/2/3
f 135/2/3 128/2/3 134/2/3
f 136/5/3 113/5/3 128/5/3
f 136/2/3 128/2/3 135/2/3
f 137/5/3 130/5/3 129/5/3
f 137/2/3 131/2/3 130/2/3
f 138/5/3 132/5/3 131/5/3
f 138/2/3 131/2/3 137/2/3
f 139/2/3 133/2/3 132/2/3
f 139/5/3 132/5/3 138/5/3
f 140/5/3 134/5/3 133/5/3
f 140/2/3 133/2/3 139/2/3
f 141/2/3 135/2/3 134/2/3
f 141/5/3 134/5/3 140/5/3
f 142/2/3 135/2/3 141/2/3
f 143/5/3 136/5/3 135/5/3
f 143/2/3 135/2/3 142/2/3
f 144/2/3 140/2/3 139/2/3
f 144/2/3 142/2/3 141/2/3
f 144/5/3 138/5/3 137/5/3
f 144/2/3 141/2/3 140/2/3
f 144/2/3 139/2/3 138/2/3
f 145/2/3 142/2/3 144/2/3
f 146/2/3 142/2/3 145/2/3
f 147/5/3 143/5/3 142/5/3
f 147/2/3 142/2/3 146/2/3
f 148/5/3 113/5/3 136/5/3
f 148/5/3 143/5/3 147/5/3
f 148/5/3 136/5/3 143/5/3
f 149/5/3 113/5/3 148/5/3
f 150/5/3 145/5/3 144/5/3
f 150/2/3 146/2/3 145/2/3
f 151/5/3 147/5/3 146/5/3
f 151/2/3 146/2/3 150/2/3
f 151/5/3 148/5/3 147/5/3
f 152/5/3 148/5/3 151/5/3
f 153/4/3 149/4/3 148/4/3
f 153/5/3 148/5/3 152/5/3
f 154/5/3 150/5/3 144/5/3
f 154/5/3 129/5/3 101/5/3
f 154/5/3 152/5/3 151/5/3
f 154/5/3 151/5/3 150/5/3
f 154/5/3 144/5/3 137/5/3
f 154/5/3 137/5/3 129/5/3
f 155/4/3 153/4/3 152/4/3
f 155/5/3 152/5/3 154/5/3
f 156/4/3 149/4/3 153/4/3
f 156/4/3 153/4/3 155/4/3
f 159/5/3 158/5/3 157/5/3
f 160/5/3 158/5/3 159/5/3
f 164/4/3 162/4/3 161/4/3
f 165/1/3 163/1/3 162/1/3
f 165/4/3 162/4/3 164/4/3
f 166/2/3 160/2/3 159/2/3
f 167/2/3 160/2/3 166/2/3
f 168/5/3 167/5/3 166/5/3
f 169/5/3 167/5/3 168/5/3
f 172/5/3 165/5/3 164/5/3
f 173/1/3 163/1/3 165/1/3
f 173/5/3 165/5/3 172/5/3
f 174/5/3 171/5/3 170/5/3
f 175/5/3 171/5/3 174/5/3
f 176/4/3 173/4/3 172/4/3
f 177/1/3 163/1/3 173/1/3
f 177/4/3 173/4/3 176/4/3
f 178/1/3 163/1/3 177/1/3
f 179/2/3 175/2/3 174/2/3
f 180/2/3 175/2/3 179/2/3
f 181/5/3 180/5/3 179/5/3
f 182/5/3 180/5/3 181/5/3
f 186/5/3 185/5/3 184/5/3
f 187/1/3 184/1/3 183/1/3
f 188/5/3 186/5/3 184/5/3
f 188/1/3 184/1/3 187/1/3
f 189/5/3 186/5/3 188/5/3
f 193/5/3 192/5/3 191/5/3
f 194/1/3 191/1/3 190/1/3
f 195/5/3 193/5/3 191/5/3
f 195/1/3 191/1/3 194/1/3
f 196/5/3 193/5/3 195/5/3
f 200/5/3 198/5/3 197/5/3
f 201/5/3 198/5/3 200/5/3
f 202/1/3 199/1/3 198/1/3
f 202/5/3 198/5/3 201/5/3
f 203/1/3 199/1/3 202/1/3
f 208/5/3 205/5/3 204/5/3
f 208/5/3 206/5/3 205/5/3
f 209/1/3 207/1/3 206/1/3
f 209/5/3 206/5/3 208/5/3
f 210/1/3 207/1/3 209/1/3
f 211/5/4 212/5/4 216/5/4
f 216/5/4 212/5/4 217/5/4
f 217/5/4 212/5/4 218/5/4
f 212/1/4 213/1/4 219/1/4
f 218/5/4 212/5/4 219/5/4
f 219/1/4 213/1/4 220/1/4
f 214/1/4 215/1/4 221/1/4
f 216/5/4 217/5/4 222/5/4
f 221/1/4 215/1/4 222/1/4
f 215/5/4 216/5/4 222/5/4
f 222/5/4 217/5/4 223/5/4
f 224/1/4 225/1/4 227/1/4
f 225/5/4 226/5/4 228/5/4
f 227/1/4 225/1/4 228/1/4
f 228/5/4 226/5/4 229/5/4
f 229/5/4 226/5/4 230/5/4
f 229/5/4 230/5/4 234/5/4
f 231/5/4 232/5/4 234/5/4
f 230/5/4 231/5/4 234/5/4
f 232/1/4 233/1/4 235/1/4
f 234/5/4 232/5/4 235/5/4
f 235/1/4 233/1/4 236/1/4
f 237/5/4 238/5/4 242/5/4
f 242/5/4 238/5/4 243/5/4
f 239/5/4 240/5/4 246/5/4
f 240/1/4 241/1/4 247/1/4
f 246/5/4 240/5/4 247/5/4
f 247/1/4 241/1/4 248/1/4
f 244/5/4 245/5/4 249/5/4
f 249/5/4 245/5/4 250/5/4
f 251/5/4 252/5/4 253/5/4
f 253/5/4 252/5/4 254/5/4
f 259/1/5 256/1/5 255/1/5
f 260/1/5 256/1/5 259/1/5
f 261/1/5 258/1/5 257/1/5
f 262/1/5 258/1/5 261/1/5
f 267/5/5 264/5/5 263/5/5
f 268/5/5 264/5/5 267/5/5
f 269/5/5 266/5/5 265/5/5
f 270/5/5 266/5/5 269/5/5
f 275/4/5 272/4/5 271/4/5
f 276/5/5 273/5/5 272/5/5
f 276/4/5 272/4/5 275/4/5
f 277/5/5 273/5/5 276/5/5
f 278/5/5 273/5/5 277/5/5
f 279/4/5 274/4/5 273/4/5
f 279/5/5 273/5/5 278/5/5
f 280/4/5 274/4/5 279/4/5
f 282/5/5 278/5/5 277/5/5
f 283/5/5 278/5/5 282/5/5
f 285/5/5 282/5/5 281/5/5
f 285/5/5 284/5/5 283/5/5
f 285/5/5 283/5/5 282/5/5
f 286/5/5 284/5/5 285/5/5
f 289/5/5 288/5/5 287/5/5
f 290/5/5 288/5/5 289/5/5
f 291/5/5 289/5/5 287/5/5
f 292/5/5 289/5/5 291/5/5
f 293/5/5 288/5/5 290/5/5
f 294/5/5 288/5/5 293/5/5
f 295/5/5 291/5/5 287/5/5
f 298/5/5 288/5/5 294/5/5
f 299/5/5 296/5/5 295/5/5
f 300/5/5 298/5/5 297/5/5
f 301/5/5 299/5/5 295/5/5
f 301/5/5 300/5/5 299/5/5
f 301/5/5 295/5/5 287/5/5
f 302/5/5 298/5/5 300/5/5
f 302/5/5 300/5/5 301/5/5
f 302/5/5 288/5/5 298/5/5
f 303/4/6 304/4/6 307/4/6
f 304/5/6 305/5/6 308/5/6
f 307/4/6 304/4/6 308/4/6
f 305/4/6 306/4/6 309/4/6
f 308/5/6 305/5/6 309/5/6
f 309/4/6 306/4/6 310/4/6
f 303/4/6 307/4/6 311/4/6
f 307/5/6 308/5/6 312/5/6
f 311/4/6 307/4/6 312/4/6
f 308/5/6 309/5/6 312/5/6
f 309/5/6 310/5/6 312/5/6
f 310/4/6 306/4/6 313/4/6
f 312/5/6 310/5/6 313/5/6
f 313/4/6 306/4/6 314/4/6
f 311/5/6 312/5/6 315/5/6
f 312/5/6 313/5/6 315/5/6
f 313/5/6 314/5/6 315/5/6
f 315/5/6 314/5/6 316/5/6
f 316/5/6 314/5/6 317/5/6
f 317/5/6 314/5/6 318/5/6
f 318/5/6 314/5/6 319/5/6
f 319/5/6 314/5/6 320/5/6
f 320/5/6 314/5/6 321/5/6
f 321/5/6 314/5/6 322/5/6
f 311/5/6 315/5/6 323/5/6
f 318/5/6 319/5/6 324/5/6
f 324/5/6 319/5/6 325/5/6
f 322/5/6 314/5/6 326/5/6
f 324/5/6 325/5/6 327/5/6
f 325/5/6 326/5/6 327/5/6
f 311/5/6 323/5/6 327/5/6
f 323/5/6 324/5/6 327/5/6
f 326/5/6 314/5/6 328/5/6
f 327/5/6 326/5/6 328/5/6
f 329/5/6 330/5/6 337/5/6
f 330/2/6 331/2/6 337/2/6
f 331/5/6 332/5/6 338/5/6
f 337/2/6 331/2/6 338/2/6
f 334/2/6 335/2/6 339/2/6
f 333/5/6 334/5/6 339/5/6
f 335/5/6 336/5/6 340/5/6
f 339/2/6 335/2/6 340/2/6
f 329/5/6 337/5/6 341/5/6
f 337/5/6 338/5/6 341/5/6
f 338/5/6 332/5/6 342/5/6
f 341/5/6 338/5/6 342/5/6
f 333/5/6 339/5/6 343/5/6
f 339/5/6 340/5/6 343/5/6
f 340/5/6 336/5/6 344/5/6
f 343/5/6 340/5/6 344/5/6
