# MagicaVoxel @ Ephtracy

# group
o 

# material
mtllib Emoji stuff6.mtl
usemtl palette

# normals
vn -1 0 0
vn 1 0 0
vn 0 0 1
vn 0 0 -1
vn 0 -1 0
vn 0 1 0

# texcoords
vt 0.380859 0.5
vt 0.541016 0.5
vt 0.978516 0.5
vt 0.982422 0.5
vt 0.986328 0.5
vt 0.990234 0.5
vt 0.994141 0.5

# verts
v -0.7 1.8 0.7
v -0.7 1.8 0.1
v -0.7 1.9 0.7
v -0.7 1.9 0.1
v -0.6 1.1 0.6
v -0.6 1.1 -0.6
v -0.6 1.6 0.7
v -0.6 1.6 0.6
v -0.6 1.8 0.7
v -0.6 1.8 0.6
v -0.6 1.8 0.1
v -0.6 1.9 0.6
v -0.6 1.9 0.1
v -0.6 2 0.6
v -0.6 2 0.5
v -0.6 2.1 0.5
v -0.6 2.1 0.4
v -0.6 2.2 0.6
v -0.6 2.2 0.4
v -0.6 2.2 -0.6
v -0.5 0.5 0.1
v -0.5 0.5 -0.1
v -0.5 0.8 0.1
v -0.5 0.8 -0.1
v -0.5 1.1 0.1
v -0.5 1.1 -0.1
v -0.5 1.5 0.7
v -0.5 1.5 0.6
v -0.5 1.6 0.7
v -0.5 1.6 0.6
v -0.5 2.2 0.3
v -0.5 2.2 -0.3
v -0.5 2.5 0.3
v -0.5 2.5 -0.3
v -0.3 0 0.2
v -0.3 0 -0.1
v -0.3 0.1 0.2
v -0.3 0.1 -0.1
v -0.3 0.5 0.1
v -0.3 0.5 -0.1
v -0.3 0.6 0.3
v -0.3 0.6 0.2
v -0.3 0.6 -0.1
v -0.3 0.6 -0.3
v -0.3 0.7 0.3
v -0.3 0.7 0.2
v -0.3 0.7 0.1
v -0.3 0.7 -0.1
v -0.3 0.7 -0.3
v -0.3 0.8 0.1
v -0.3 0.8 -0.1
v -0.3 1 0.3
v -0.3 1 0.2
v -0.3 1.1 0.3
v -0.3 1.1 0.2
v -0.3 1.1 0.1
v -0.3 1.1 -0.1
v -0.3 1.1 -0.3
v 0.1 0 0.2
v 0.1 0 -0.1
v 0.1 0.1 0.2
v 0.1 0.1 -0.1
v 0.1 0.6 0.2
v 0.1 0.6 -0.1
v 0.1 1.6 0.7
v 0.1 1.6 0.6
v 0.1 1.7 0.7
v 0.1 1.7 0.6
v 0.1 1.8 0.7
v 0.1 1.8 0.6
v 0.1 1.9 0.7
v 0.1 1.9 0.6
v 0.1 2.2 0.3
v 0.1 2.2 -0.3
v 0.1 2.5 0.3
v 0.1 2.5 -0.3
v 0.2 1.5 0.7
v 0.2 1.5 0.6
v 0.2 1.6 0.7
v 0.2 1.6 0.6
v -0.2 1.5 0.7
v -0.2 1.5 0.6
v -0.2 1.6 0.7
v -0.2 1.6 0.6
v -0.1 0 0.2
v -0.1 0 -0.1
v -0.1 0.1 0.2
v -0.1 0.1 -0.1
v -0.1 0.6 0.2
v -0.1 0.6 -0.1
v -0.1 1.6 0.7
v -0.1 1.6 0.6
v -0.1 1.7 0.7
v -0.1 1.7 0.6
v -0.1 1.8 0.7
v -0.1 1.8 0.6
v -0.1 1.9 0.7
v -0.1 1.9 0.6
v -0.1 2.2 0.3
v -0.1 2.2 -0.3
v -0.1 2.5 0.3
v -0.1 2.5 -0.3
v 0.3 0 0.2
v 0.3 0 -0.1
v 0.3 0.1 0.2
v 0.3 0.1 -0.1
v 0.3 0.5 0.1
v 0.3 0.5 -0.1
v 0.3 0.6 0.3
v 0.3 0.6 0.2
v 0.3 0.6 -0.1
v 0.3 0.6 -0.3
v 0.3 0.7 0.3
v 0.3 0.7 0.2
v 0.3 0.7 0.1
v 0.3 0.7 -0.1
v 0.3 0.7 -0.3
v 0.3 0.8 0.1
v 0.3 0.8 -0.1
v 0.3 1 0.3
v 0.3 1 0.2
v 0.3 1.1 0.3
v 0.3 1.1 0.2
v 0.3 1.1 0.1
v 0.3 1.1 -0.1
v 0.3 1.1 -0.3
v 0.5 0.5 0.1
v 0.5 0.5 -0.1
v 0.5 0.6 0.1
v 0.5 0.6 -0.1
v 0.5 0.8 0.1
v 0.5 0.8 -0.1
v 0.5 1.1 0.1
v 0.5 1.1 -0.1
v 0.5 1.5 0.7
v 0.5 1.5 0.6
v 0.5 1.6 0.7
v 0.5 1.6 0.6
v 0.5 2.2 0.3
v 0.5 2.2 -0.3
v 0.5 2.5 0.3
v 0.5 2.5 -0.3
v 0.6 1.1 0.6
v 0.6 1.1 -0.6
v 0.6 1.6 0.7
v 0.6 1.6 0.6
v 0.6 1.8 0.7
v 0.6 1.8 0.6
v 0.6 1.8 0.1
v 0.6 1.9 0.6
v 0.6 1.9 0.1
v 0.6 2 0.6
v 0.6 2 0.5
v 0.6 2.1 0.5
v 0.6 2.1 0.4
v 0.6 2.2 0.6
v 0.6 2.2 0.4
v 0.6 2.2 -0.6
v 0.7 1.8 0.7
v 0.7 1.8 0.1
v 0.7 1.9 0.7
v 0.7 1.9 0.1
v -0.7 1.8 0.7
v -0.7 1.9 0.7
v -0.6 1.6 0.7
v -0.6 1.8 0.7
v -0.6 1.9 0.7
v -0.5 1.5 0.7
v -0.5 1.6 0.7
v -0.5 1.7 0.7
v -0.5 1.8 0.7
v -0.5 1.9 0.7
v -0.4 1.6 0.7
v -0.4 1.7 0.7
v -0.4 1.8 0.7
v -0.3 1.6 0.7
v -0.3 1.7 0.7
v -0.2 1.5 0.7
v -0.2 1.6 0.7
v -0.1 1.6 0.7
v -0.1 1.7 0.7
v -0.1 1.8 0.7
v -0.1 1.9 0.7
v 0.1 1.6 0.7
v 0.1 1.7 0.7
v 0.1 1.8 0.7
v 0.1 1.9 0.7
v 0.2 1.5 0.7
v 0.2 1.6 0.7
v 0.2 1.7 0.7
v 0.2 1.8 0.7
v 0.2 1.9 0.7
v 0.3 1.6 0.7
v 0.3 1.7 0.7
v 0.3 1.8 0.7
v 0.4 1.6 0.7
v 0.4 1.7 0.7
v 0.5 1.5 0.7
v 0.5 1.6 0.7
v 0.6 1.6 0.7
v 0.6 1.8 0.7
v 0.7 1.8 0.7
v 0.7 1.9 0.7
v -0.6 1.1 0.6
v -0.6 1.6 0.6
v -0.6 1.9 0.6
v -0.6 2 0.6
v -0.6 2.2 0.6
v -0.5 1.5 0.6
v -0.5 1.6 0.6
v -0.5 1.9 0.6
v -0.5 2 0.6
v -0.5 2.1 0.6
v -0.4 2.1 0.6
v -0.4 2.2 0.6
v -0.2 1.2 0.6
v -0.2 1.3 0.6
v -0.2 1.5 0.6
v -0.2 1.6 0.6
v -0.1 1.6 0.6
v -0.1 1.7 0.6
v -0.1 1.8 0.6
v -0.1 1.9 0.6
v 0.1 1.6 0.6
v 0.1 1.7 0.6
v 0.1 1.8 0.6
v 0.1 1.9 0.6
v 0.2 1.2 0.6
v 0.2 1.3 0.6
v 0.2 1.4 0.6
v 0.2 1.5 0.6
v 0.2 1.6 0.6
v 0.2 1.9 0.6
v 0.3 1.3 0.6
v 0.3 1.4 0.6
v 0.4 2.1 0.6
v 0.4 2.2 0.6
v 0.5 1.5 0.6
v 0.5 1.6 0.6
v 0.5 2 0.6
v 0.5 2.1 0.6
v 0.6 1.1 0.6
v 0.6 1.6 0.6
v 0.6 1.9 0.6
v 0.6 2 0.6
v 0.6 2.2 0.6
v -0.5 2.2 0.3
v -0.5 2.5 0.3
v -0.4 2.2 0.3
v -0.4 2.5 0.3
v -0.3 0.6 0.3
v -0.3 0.7 0.3
v -0.3 1 0.3
v -0.3 1.1 0.3
v -0.2 0.6 0.3
v -0.2 0.7 0.3
v -0.2 0.9 0.3
v -0.2 1 0.3
v -0.2 1.1 0.3
v -0.2 2.2 0.3
v -0.2 2.5 0.3
v -0.1 0.8 0.3
v -0.1 0.9 0.3
v -0.1 1 0.3
v -0.1 2.2 0.3
v -0.1 2.5 0.3
v 0.1 0.8 0.3
v 0.1 0.9 0.3
v 0.1 1 0.3
v 0.1 2.2 0.3
v 0.1 2.5 0.3
v 0.2 0.6 0.3
v 0.2 0.7 0.3
v 0.2 0.9 0.3
v 0.2 1 0.3
v 0.2 1.1 0.3
v 0.2 2.2 0.3
v 0.2 2.5 0.3
v 0.3 0.6 0.3
v 0.3 0.7 0.3
v 0.3 1 0.3
v 0.3 1.1 0.3
v 0.4 2.2 0.3
v 0.4 2.5 0.3
v 0.5 2.2 0.3
v 0.5 2.5 0.3
v -0.3 0 0.2
v -0.3 0.1 0.2
v -0.3 0.6 0.2
v -0.2 0.6 0.2
v -0.1 0 0.2
v -0.1 0.1 0.2
v -0.1 0.6 0.2
v 0.1 0 0.2
v 0.1 0.1 0.2
v 0.1 0.6 0.2
v 0.2 0.6 0.2
v 0.3 0 0.2
v 0.3 0.1 0.2
v 0.3 0.6 0.2
v -0.5 0.5 0.1
v -0.5 0.8 0.1
v -0.5 1.1 0.1
v -0.3 0.5 0.1
v -0.3 0.7 0.1
v -0.3 0.8 0.1
v -0.3 1.1 0.1
v 0.3 0.5 0.1
v 0.3 0.7 0.1
v 0.3 0.8 0.1
v 0.3 1.1 0.1
v 0.4 0.5 0.1
v 0.4 0.6 0.1
v 0.5 0.5 0.1
v 0.5 0.6 0.1
v 0.5 0.8 0.1
v 0.5 1.1 0.1
v -0.7 1.8 0.1
v -0.7 1.9 0.1
v -0.6 1.8 0.1
v -0.6 1.9 0.1
v 0.6 1.8 0.1
v 0.6 1.9 0.1
v 0.7 1.8 0.1
v 0.7 1.9 0.1
v -0.5 0.5 -0.1
v -0.5 0.8 -0.1
v -0.5 1.1 -0.1
v -0.3 0 -0.1
v -0.3 0.1 -0.1
v -0.3 0.5 -0.1
v -0.3 0.6 -0.1
v -0.3 0.7 -0.1
v -0.3 0.8 -0.1
v -0.3 1.1 -0.1
v -0.1 0 -0.1
v -0.1 0.1 -0.1
v -0.1 0.6 -0.1
v 0.1 0 -0.1
v 0.1 0.1 -0.1
v 0.1 0.6 -0.1
v 0.3 0 -0.1
v 0.3 0.1 -0.1
v 0.3 0.5 -0.1
v 0.3 0.6 -0.1
v 0.3 0.7 -0.1
v 0.3 0.8 -0.1
v 0.3 1.1 -0.1
v 0.4 0.5 -0.1
v 0.4 0.6 -0.1
v 0.5 0.5 -0.1
v 0.5 0.6 -0.1
v 0.5 0.8 -0.1
v 0.5 1.1 -0.1
v -0.5 2.2 -0.3
v -0.5 2.5 -0.3
v -0.3 0.6 -0.3
v -0.3 0.7 -0.3
v -0.3 1.1 -0.3
v -0.1 2.2 -0.3
v -0.1 2.5 -0.3
v 0.1 2.2 -0.3
v 0.1 2.5 -0.3
v 0.3 0.6 -0.3
v 0.3 0.7 -0.3
v 0.3 1.1 -0.3
v 0.5 2.2 -0.3
v 0.5 2.5 -0.3
v -0.6 1.1 -0.6
v -0.6 2.2 -0.6
v 0.6 1.1 -0.6
v 0.6 2.2 -0.6
v -0.3 0 0.2
v -0.1 0 0.2
v 0.1 0 0.2
v 0.3 0 0.2
v -0.3 0 -0.1
v -0.1 0 -0.1
v 0.1 0 -0.1
v 0.3 0 -0.1
v -0.5 0.5 0.1
v -0.3 0.5 0.1
v 0.3 0.5 0.1
v 0.4 0.5 0.1
v 0.5 0.5 0.1
v -0.5 0.5 -0.1
v -0.3 0.5 -0.1
v 0.3 0.5 -0.1
v 0.4 0.5 -0.1
v 0.5 0.5 -0.1
v -0.3 0.6 0.3
v -0.2 0.6 0.3
v 0.2 0.6 0.3
v 0.3 0.6 0.3
v -0.3 0.6 0.2
v -0.2 0.6 0.2
v -0.1 0.6 0.2
v 0.1 0.6 0.2
v 0.2 0.6 0.2
v 0.3 0.6 0.2
v -0.3 0.6 -0.1
v -0.1 0.6 -0.1
v 0.1 0.6 -0.1
v 0.3 0.6 -0.1
v -0.3 0.6 -0.3
v 0.3 0.6 -0.3
v -0.6 1.1 0.6
v 0.6 1.1 0.6
v -0.3 1.1 0.3
v -0.2 1.1 0.3
v 0.2 1.1 0.3
v 0.3 1.1 0.3
v -0.3 1.1 0.2
v 0.3 1.1 0.2
v -0.5 1.1 0.1
v -0.3 1.1 0.1
v 0.3 1.1 0.1
v 0.5 1.1 0.1
v -0.5 1.1 -0.1
v -0.3 1.1 -0.1
v 0.3 1.1 -0.1
v 0.5 1.1 -0.1
v -0.3 1.1 -0.3
v 0.3 1.1 -0.3
v -0.6 1.1 -0.6
v 0.6 1.1 -0.6
v -0.5 1.5 0.7
v -0.2 1.5 0.7
v 0.2 1.5 0.7
v 0.5 1.5 0.7
v -0.5 1.5 0.6
v -0.2 1.5 0.6
v 0.2 1.5 0.6
v 0.5 1.5 0.6
v -0.6 1.6 0.7
v -0.5 1.6 0.7
v -0.2 1.6 0.7
v -0.1 1.6 0.7
v 0.1 1.6 0.7
v 0.2 1.6 0.7
v 0.5 1.6 0.7
v 0.6 1.6 0.7
v -0.6 1.6 0.6
v -0.5 1.6 0.6
v -0.2 1.6 0.6
v -0.1 1.6 0.6
v 0.1 1.6 0.6
v 0.2 1.6 0.6
v 0.5 1.6 0.6
v 0.6 1.6 0.6
v -0.1 1.7 0.7
v 0.1 1.7 0.7
v -0.1 1.7 0.6
v 0.1 1.7 0.6
v -0.7 1.8 0.7
v -0.6 1.8 0.7
v 0.6 1.8 0.7
v 0.7 1.8 0.7
v -0.6 1.8 0.6
v 0.6 1.8 0.6
v -0.7 1.8 0.1
v -0.6 1.8 0.1
v 0.6 1.8 0.1
v 0.7 1.8 0.1
v -0.1 1.8 0.7
v 0.1 1.8 0.7
v -0.1 1.8 0.6
v 0.1 1.8 0.6
v -0.7 1.9 0.7
v -0.6 1.9 0.7
v -0.5 1.9 0.7
v -0.1 1.9 0.7
v 0.1 1.9 0.7
v 0.2 1.9 0.7
v 0.7 1.9 0.7
v -0.6 1.9 0.6
v -0.5 1.9 0.6
v -0.1 1.9 0.6
v 0.1 1.9 0.6
v 0.2 1.9 0.6
v 0.6 1.9 0.6
v -0.7 1.9 0.1
v -0.6 1.9 0.1
v 0.6 1.9 0.1
v 0.7 1.9 0.1
v -0.6 2.2 0.6
v -0.4 2.2 0.6
v 0.4 2.2 0.6
v 0.6 2.2 0.6
v -0.5 2.2 0.5
v -0.4 2.2 0.5
v 0.4 2.2 0.5
v 0.5 2.2 0.5
v -0.6 2.2 0.4
v -0.5 2.2 0.4
v 0.5 2.2 0.4
v 0.6 2.2 0.4
v -0.5 2.2 0.3
v -0.4 2.2 0.3
v -0.2 2.2 0.3
v -0.1 2.2 0.3
v 0.1 2.2 0.3
v 0.2 2.2 0.3
v 0.4 2.2 0.3
v 0.5 2.2 0.3
v -0.5 2.2 -0.3
v -0.1 2.2 -0.3
v 0.1 2.2 -0.3
v 0.5 2.2 -0.3
v -0.6 2.2 -0.6
v 0.6 2.2 -0.6
v -0.5 2.5 0.3
v -0.4 2.5 0.3
v -0.2 2.5 0.3
v -0.1 2.5 0.3
v 0.1 2.5 0.3
v 0.2 2.5 0.3
v 0.4 2.5 0.3
v 0.5 2.5 0.3
v -0.4 2.5 -0.2
v -0.2 2.5 -0.2
v 0.2 2.5 -0.2
v 0.4 2.5 -0.2
v -0.5 2.5 -0.3
v -0.1 2.5 -0.3
v 0.1 2.5 -0.3
v 0.5 2.5 -0.3

# faces
f 3/7/1 2/7/1 1/7/1
f 4/7/1 2/7/1 3/7/1
f 8/6/1 6/6/1 5/6/1
f 9/7/1 8/7/1 7/7/1
f 10/6/1 6/6/1 8/6/1
f 10/7/1 8/7/1 9/7/1
f 11/6/1 6/6/1 10/6/1
f 13/6/1 6/6/1 11/6/1
f 14/6/1 13/6/1 12/6/1
f 15/6/1 13/6/1 14/6/1
f 16/5/1 15/5/1 14/5/1
f 16/6/1 13/6/1 15/6/1
f 17/6/1 13/6/1 16/6/1
f 18/5/1 16/5/1 14/5/1
f 18/5/1 17/5/1 16/5/1
f 19/6/1 13/6/1 17/6/1
f 19/5/1 17/5/1 18/5/1
f 20/6/1 6/6/1 13/6/1
f 20/6/1 13/6/1 19/6/1
f 23/6/1 22/6/1 21/6/1
f 24/6/1 22/6/1 23/6/1
f 25/7/1 24/7/1 23/7/1
f 26/7/1 24/7/1 25/7/1
f 29/7/1 28/7/1 27/7/1
f 30/7/1 28/7/1 29/7/1
f 33/6/1 32/6/1 31/6/1
f 34/6/1 32/6/1 33/6/1
f 37/7/1 36/7/1 35/7/1
f 38/7/1 36/7/1 37/7/1
f 39/6/1 38/6/1 37/6/1
f 40/6/1 38/6/1 39/6/1
f 42/6/1 39/6/1 37/6/1
f 45/5/1 42/5/1 41/5/1
f 46/6/1 39/6/1 42/6/1
f 46/5/1 42/5/1 45/5/1
f 47/6/1 39/6/1 46/6/1
f 48/6/1 44/6/1 43/6/1
f 49/6/1 44/6/1 48/6/1
f 50/7/1 47/7/1 46/7/1
f 50/7/1 46/7/1 45/7/1
f 51/7/1 49/7/1 48/7/1
f 52/7/1 50/7/1 45/7/1
f 53/7/1 50/7/1 52/7/1
f 54/1/1 53/1/1 52/1/1
f 55/7/1 50/7/1 53/7/1
f 55/1/1 53/1/1 54/1/1
f 56/7/1 50/7/1 55/7/1
f 57/7/1 49/7/1 51/7/1
f 58/7/1 49/7/1 57/7/1
f 61/7/1 60/7/1 59/7/1
f 62/7/1 60/7/1 61/7/1
f 63/6/1 62/6/1 61/6/1
f 64/6/1 62/6/1 63/6/1
f 67/7/1 66/7/1 65/7/1
f 68/7/1 66/7/1 67/7/1
f 71/3/1 70/3/1 69/3/1
f 72/3/1 70/3/1 71/3/1
f 75/6/1 74/6/1 73/6/1
f 76/6/1 74/6/1 75/6/1
f 79/7/1 78/7/1 77/7/1
f 80/7/1 78/7/1 79/7/1
f 81/7/2 82/7/2 83/7/2
f 83/7/2 82/7/2 84/7/2
f 85/7/2 86/7/2 87/7/2
f 87/7/2 86/7/2 88/7/2
f 87/6/2 88/6/2 89/6/2
f 89/6/2 88/6/2 90/6/2
f 91/7/2 92/7/2 93/7/2
f 93/7/2 92/7/2 94/7/2
f 95/7/2 96/7/2 97/7/2
f 97/7/2 96/7/2 98/7/2
f 99/6/2 100/6/2 101/6/2
f 101/6/2 100/6/2 102/6/2
f 103/7/2 104/7/2 105/7/2
f 105/7/2 104/7/2 106/7/2
f 105/6/2 106/6/2 107/6/2
f 107/6/2 106/6/2 108/6/2
f 105/6/2 107/6/2 110/6/2
f 109/5/2 110/5/2 113/5/2
f 110/6/2 107/6/2 114/6/2
f 113/5/2 110/5/2 114/5/2
f 114/6/2 107/6/2 115/6/2
f 111/6/2 112/6/2 116/6/2
f 116/6/2 112/6/2 117/6/2
f 114/7/2 115/7/2 118/7/2
f 113/7/2 114/7/2 118/7/2
f 116/7/2 117/7/2 119/7/2
f 113/7/2 118/7/2 120/7/2
f 120/7/2 118/7/2 121/7/2
f 120/1/2 121/1/2 122/1/2
f 121/7/2 118/7/2 123/7/2
f 122/1/2 121/1/2 123/1/2
f 123/7/2 118/7/2 124/7/2
f 119/7/2 117/7/2 125/7/2
f 125/7/2 117/7/2 126/7/2
f 127/1/2 128/1/2 129/1/2
f 129/1/2 128/1/2 130/1/2
f 129/6/2 130/6/2 131/6/2
f 131/6/2 130/6/2 132/6/2
f 131/7/2 132/7/2 133/7/2
f 133/7/2 132/7/2 134/7/2
f 135/7/2 136/7/2 137/7/2
f 137/7/2 136/7/2 138/7/2
f 139/6/2 140/6/2 141/6/2
f 141/6/2 140/6/2 142/6/2
f 143/6/2 144/6/2 146/6/2
f 145/7/2 146/7/2 147/7/2
f 146/6/2 144/6/2 148/6/2
f 147/7/2 146/7/2 148/7/2
f 148/6/2 144/6/2 149/6/2
f 149/6/2 144/6/2 151/6/2
f 150/6/2 151/6/2 152/6/2
f 152/6/2 151/6/2 153/6/2
f 152/5/2 153/5/2 154/5/2
f 153/6/2 151/6/2 154/6/2
f 154/6/2 151/6/2 155/6/2
f 152/5/2 154/5/2 156/5/2
f 154/5/2 155/5/2 156/5/2
f 155/6/2 151/6/2 157/6/2
f 156/5/2 155/5/2 157/5/2
f 151/6/2 144/6/2 158/6/2
f 157/6/2 151/6/2 158/6/2
f 159/7/2 160/7/2 161/7/2
f 161/7/2 160/7/2 162/7/2
f 166/7/3 164/7/3 163/7/3
f 167/7/3 164/7/3 166/7/3
f 169/7/3 166/7/3 165/7/3
f 170/7/3 166/7/3 169/7/3
f 171/3/3 167/3/3 166/3/3
f 171/7/3 166/7/3 170/7/3
f 172/3/3 167/3/3 171/3/3
f 173/7/3 170/7/3 169/7/3
f 173/7/3 169/7/3 168/7/3
f 174/4/3 171/4/3 170/4/3
f 174/7/3 170/7/3 173/7/3
f 175/7/3 172/7/3 171/7/3
f 175/4/3 171/4/3 174/4/3
f 176/4/3 174/4/3 173/4/3
f 176/7/3 173/7/3 168/7/3
f 177/7/3 175/7/3 174/7/3
f 177/4/3 174/4/3 176/4/3
f 178/7/3 176/7/3 168/7/3
f 178/7/3 177/7/3 176/7/3
f 179/7/3 177/7/3 178/7/3
f 180/7/3 177/7/3 179/7/3
f 181/7/3 175/7/3 177/7/3
f 181/7/3 177/7/3 180/7/3
f 182/7/3 172/7/3 175/7/3
f 182/7/3 175/7/3 181/7/3
f 183/7/3 172/7/3 182/7/3
f 185/7/3 182/7/3 181/7/3
f 186/7/3 182/7/3 185/7/3
f 189/7/3 185/7/3 184/7/3
f 189/7/3 186/7/3 185/7/3
f 190/7/3 186/7/3 189/7/3
f 191/3/3 187/3/3 186/3/3
f 191/7/3 186/7/3 190/7/3
f 192/3/3 187/3/3 191/3/3
f 193/7/3 190/7/3 189/7/3
f 193/7/3 189/7/3 188/7/3
f 194/4/3 191/4/3 190/4/3
f 194/7/3 190/7/3 193/7/3
f 195/7/3 192/7/3 191/7/3
f 195/4/3 191/4/3 194/4/3
f 196/4/3 194/4/3 193/4/3
f 196/7/3 193/7/3 188/7/3
f 197/7/3 195/7/3 194/7/3
f 197/4/3 194/4/3 196/4/3
f 198/7/3 196/7/3 188/7/3
f 198/7/3 197/7/3 196/7/3
f 199/7/3 197/7/3 198/7/3
f 200/7/3 197/7/3 199/7/3
f 201/7/3 192/7/3 195/7/3
f 201/7/3 197/7/3 200/7/3
f 201/7/3 195/7/3 197/7/3
f 202/7/3 192/7/3 201/7/3
f 203/7/3 192/7/3 202/7/3
f 209/6/3 205/6/3 204/6/3
f 210/6/3 205/6/3 209/6/3
f 211/6/3 207/6/3 206/6/3
f 212/5/3 208/5/3 207/5/3
f 212/6/3 207/6/3 211/6/3
f 213/5/3 208/5/3 212/5/3
f 214/5/3 208/5/3 213/5/3
f 214/6/3 213/6/3 212/6/3
f 214/6/3 212/6/3 211/6/3
f 215/5/3 208/5/3 214/5/3
f 216/6/3 209/6/3 204/6/3
f 217/6/3 209/6/3 216/6/3
f 218/6/3 209/6/3 217/6/3
f 220/6/3 218/6/3 217/6/3
f 220/6/3 219/6/3 218/6/3
f 223/6/3 214/6/3 211/6/3
f 223/6/3 215/6/3 214/6/3
f 224/6/3 221/6/3 220/6/3
f 224/6/3 220/6/3 217/6/3
f 225/6/3 221/6/3 224/6/3
f 226/6/3 223/6/3 222/6/3
f 227/6/3 215/6/3 223/6/3
f 227/6/3 223/6/3 226/6/3
f 228/6/3 216/6/3 204/6/3
f 228/3/3 217/3/3 216/3/3
f 229/6/3 224/6/3 217/6/3
f 229/3/3 217/3/3 228/3/3
f 230/6/3 224/6/3 229/6/3
f 231/6/3 224/6/3 230/6/3
f 232/6/3 224/6/3 231/6/3
f 233/6/3 215/6/3 227/6/3
f 234/6/3 229/6/3 228/6/3
f 234/3/3 230/3/3 229/3/3
f 235/6/3 231/6/3 230/6/3
f 235/3/3 230/3/3 234/3/3
f 236/6/3 215/6/3 233/6/3
f 237/6/3 215/6/3 236/6/3
f 238/6/3 231/6/3 235/6/3
f 238/6/3 235/6/3 234/6/3
f 240/6/3 236/6/3 233/6/3
f 241/5/3 237/5/3 236/5/3
f 241/6/3 236/6/3 240/6/3
f 242/6/3 228/6/3 204/6/3
f 242/6/3 234/6/3 228/6/3
f 242/6/3 239/6/3 238/6/3
f 242/6/3 238/6/3 234/6/3
f 243/6/3 239/6/3 242/6/3
f 244/6/3 240/6/3 233/6/3
f 245/5/3 241/5/3 240/5/3
f 245/6/3 240/6/3 244/6/3
f 246/5/3 237/5/3 241/5/3
f 246/5/3 241/5/3 245/5/3
f 249/6/3 248/6/3 247/6/3
f 250/6/3 248/6/3 249/6/3
f 255/5/3 252/5/3 251/5/3
f 256/7/3 253/7/3 252/7/3
f 256/5/3 252/5/3 255/5/3
f 257/7/3 253/7/3 256/7/3
f 258/1/3 254/1/3 253/1/3
f 258/7/3 253/7/3 257/7/3
f 259/1/3 254/1/3 258/1/3
f 260/1/3 250/1/3 249/1/3
f 261/1/3 250/1/3 260/1/3
f 262/7/3 257/7/3 256/7/3
f 263/1/3 258/1/3 257/1/3
f 263/7/3 257/7/3 262/7/3
f 264/7/3 259/7/3 258/7/3
f 264/1/3 258/1/3 263/1/3
f 265/6/3 261/6/3 260/6/3
f 266/6/3 261/6/3 265/6/3
f 267/1/3 263/1/3 262/1/3
f 267/7/3 262/7/3 256/7/3
f 268/7/3 264/7/3 263/7/3
f 268/1/3 263/1/3 267/1/3
f 269/7/3 259/7/3 264/7/3
f 269/7/3 264/7/3 268/7/3
f 272/6/3 256/6/3 255/6/3
f 273/7/3 268/7/3 267/7/3
f 273/6/3 256/6/3 272/6/3
f 273/7/3 267/7/3 256/7/3
f 274/1/3 269/1/3 268/1/3
f 274/7/3 268/7/3 273/7/3
f 275/7/3 259/7/3 269/7/3
f 275/1/3 269/1/3 274/1/3
f 276/7/3 259/7/3 275/7/3
f 277/6/3 271/6/3 270/6/3
f 278/6/3 271/6/3 277/6/3
f 279/5/3 273/5/3 272/5/3
f 280/7/3 274/7/3 273/7/3
f 280/5/3 273/5/3 279/5/3
f 280/7/3 275/7/3 274/7/3
f 281/1/3 276/1/3 275/1/3
f 281/7/3 275/7/3 280/7/3
f 282/1/3 276/1/3 281/1/3
f 283/1/3 278/1/3 277/1/3
f 284/1/3 278/1/3 283/1/3
f 285/6/3 284/6/3 283/6/3
f 286/6/3 284/6/3 285/6/3
f 290/6/3 289/6/3 288/6/3
f 291/7/3 288/7/3 287/7/3
f 292/6/3 290/6/3 288/6/3
f 292/7/3 288/7/3 291/7/3
f 293/6/3 290/6/3 292/6/3
f 297/6/3 296/6/3 295/6/3
f 298/7/3 295/7/3 294/7/3
f 299/6/3 297/6/3 295/6/3
f 299/7/3 295/7/3 298/7/3
f 300/6/3 297/6/3 299/6/3
f 304/6/3 302/6/3 301/6/3
f 305/6/3 302/6/3 304/6/3
f 306/7/3 303/7/3 302/7/3
f 306/6/3 302/6/3 305/6/3
f 307/7/3 303/7/3 306/7/3
f 312/6/3 309/6/3 308/6/3
f 312/6/3 310/6/3 309/6/3
f 313/6/3 310/6/3 312/6/3
f 314/1/3 313/1/3 312/1/3
f 315/6/3 310/6/3 313/6/3
f 315/1/3 313/1/3 314/1/3
f 316/7/3 311/7/3 310/7/3
f 316/6/3 310/6/3 315/6/3
f 317/7/3 311/7/3 316/7/3
f 318/7/4 319/7/4 320/7/4
f 320/7/4 319/7/4 321/7/4
f 322/7/4 323/7/4 324/7/4
f 324/7/4 323/7/4 325/7/4
f 326/6/4 327/6/4 331/6/4
f 331/6/4 327/6/4 332/6/4
f 332/6/4 327/6/4 333/6/4
f 327/7/4 328/7/4 334/7/4
f 333/6/4 327/6/4 334/6/4
f 334/7/4 328/7/4 335/7/4
f 329/7/4 330/7/4 336/7/4
f 331/6/4 332/6/4 337/6/4
f 336/7/4 330/7/4 337/7/4
f 330/6/4 331/6/4 337/6/4
f 337/6/4 332/6/4 338/6/4
f 339/7/4 340/7/4 342/7/4
f 340/6/4 341/6/4 343/6/4
f 342/7/4 340/7/4 343/7/4
f 343/6/4 341/6/4 344/6/4
f 344/6/4 341/6/4 345/6/4
f 344/6/4 345/6/4 349/6/4
f 346/6/4 347/6/4 349/6/4
f 345/6/4 346/6/4 349/6/4
f 349/6/4 347/6/4 350/6/4
f 349/1/4 350/1/4 351/1/4
f 350/6/4 347/6/4 352/6/4
f 351/1/4 350/1/4 352/1/4
f 347/7/4 348/7/4 353/7/4
f 352/6/4 347/6/4 353/6/4
f 353/7/4 348/7/4 354/7/4
f 355/6/4 356/6/4 360/6/4
f 360/6/4 356/6/4 361/6/4
f 357/6/4 358/6/4 364/6/4
f 358/7/4 359/7/4 365/7/4
f 364/6/4 358/6/4 365/6/4
f 365/7/4 359/7/4 366/7/4
f 362/6/4 363/6/4 367/6/4
f 367/6/4 363/6/4 368/6/4
f 369/6/4 370/6/4 371/6/4
f 371/6/4 370/6/4 372/6/4
f 377/7/5 374/7/5 373/7/5
f 378/7/5 374/7/5 377/7/5
f 379/7/5 376/7/5 375/7/5
f 380/7/5 376/7/5 379/7/5
f 386/6/5 382/6/5 381/6/5
f 387/6/5 382/6/5 386/6/5
f 388/6/5 384/6/5 383/6/5
f 389/1/5 385/1/5 384/1/5
f 389/6/5 384/6/5 388/6/5
f 390/1/5 385/1/5 389/1/5
f 395/5/5 392/5/5 391/5/5
f 396/6/5 393/6/5 392/6/5
f 396/5/5 392/5/5 395/5/5
f 397/6/5 393/6/5 396/6/5
f 398/6/5 393/6/5 397/6/5
f 399/5/5 394/5/5 393/5/5
f 399/6/5 393/6/5 398/6/5
f 400/5/5 394/5/5 399/5/5
f 402/6/5 398/6/5 397/6/5
f 403/6/5 398/6/5 402/6/5
f 405/6/5 402/6/5 401/6/5
f 405/6/5 404/6/5 403/6/5
f 405/6/5 403/6/5 402/6/5
f 406/6/5 404/6/5 405/6/5
f 409/6/5 408/6/5 407/6/5
f 410/6/5 408/6/5 409/6/5
f 411/6/5 408/6/5 410/6/5
f 412/6/5 408/6/5 411/6/5
f 413/6/5 409/6/5 407/6/5
f 414/6/5 408/6/5 412/6/5
f 415/6/5 413/6/5 407/6/5
f 416/6/5 413/6/5 415/6/5
f 417/6/5 408/6/5 414/6/5
f 418/6/5 408/6/5 417/6/5
f 419/6/5 415/6/5 407/6/5
f 422/6/5 408/6/5 418/6/5
f 423/6/5 420/6/5 419/6/5
f 424/6/5 422/6/5 421/6/5
f 425/6/5 423/6/5 419/6/5
f 425/6/5 424/6/5 423/6/5
f 425/6/5 419/6/5 407/6/5
f 426/6/5 422/6/5 424/6/5
f 426/6/5 424/6/5 425/6/5
f 426/6/5 408/6/5 422/6/5
f 431/7/5 428/7/5 427/7/5
f 432/7/5 428/7/5 431/7/5
f 433/7/5 430/7/5 429/7/5
f 434/7/5 430/7/5 433/7/5
f 443/7/5 436/7/5 435/7/5
f 444/7/5 436/7/5 443/7/5
f 445/7/5 438/7/5 437/7/5
f 446/7/5 438/7/5 445/7/5
f 447/7/5 440/7/5 439/7/5
f 448/7/5 440/7/5 447/7/5
f 449/7/5 442/7/5 441/7/5
f 450/7/5 442/7/5 449/7/5
f 453/7/5 452/7/5 451/7/5
f 454/7/5 452/7/5 453/7/5
f 459/7/5 456/7/5 455/7/5
f 460/7/5 458/7/5 457/7/5
f 461/7/5 459/7/5 455/7/5
f 462/7/5 459/7/5 461/7/5
f 463/7/5 458/7/5 460/7/5
f 464/7/5 458/7/5 463/7/5
f 465/7/6 466/7/6 467/7/6
f 467/7/6 466/7/6 468/7/6
f 469/7/6 470/7/6 476/7/6
f 470/3/6 471/3/6 476/3/6
f 471/7/6 472/7/6 477/7/6
f 476/3/6 471/3/6 477/3/6
f 477/7/6 472/7/6 478/7/6
f 473/3/6 474/3/6 479/3/6
f 474/7/6 475/7/6 480/7/6
f 479/3/6 474/3/6 480/3/6
f 480/7/6 475/7/6 481/7/6
f 469/7/6 476/7/6 482/7/6
f 482/7/6 476/7/6 483/7/6
f 481/7/6 475/7/6 484/7/6
f 484/7/6 475/7/6 485/7/6
f 486/5/6 487/5/6 490/5/6
f 487/6/6 488/6/6 491/6/6
f 490/5/6 487/5/6 491/5/6
f 488/5/6 489/5/6 492/5/6
f 491/6/6 488/6/6 492/6/6
f 492/5/6 489/5/6 493/5/6
f 486/5/6 490/5/6 494/5/6
f 490/6/6 491/6/6 495/6/6
f 494/5/6 490/5/6 495/5/6
f 491/6/6 492/6/6 495/6/6
f 492/6/6 493/6/6 495/6/6
f 493/5/6 489/5/6 496/5/6
f 495/6/6 493/6/6 496/6/6
f 496/5/6 489/5/6 497/5/6
f 494/6/6 495/6/6 498/6/6
f 495/6/6 496/6/6 498/6/6
f 496/6/6 497/6/6 498/6/6
f 498/6/6 497/6/6 499/6/6
f 499/6/6 497/6/6 500/6/6
f 500/6/6 497/6/6 501/6/6
f 501/6/6 497/6/6 502/6/6
f 502/6/6 497/6/6 503/6/6
f 503/6/6 497/6/6 504/6/6
f 504/6/6 497/6/6 505/6/6
f 494/6/6 498/6/6 506/6/6
f 501/6/6 502/6/6 507/6/6
f 507/6/6 502/6/6 508/6/6
f 505/6/6 497/6/6 509/6/6
f 507/6/6 508/6/6 510/6/6
f 508/6/6 509/6/6 510/6/6
f 494/6/6 506/6/6 510/6/6
f 506/6/6 507/6/6 510/6/6
f 509/6/6 497/6/6 511/6/6
f 510/6/6 509/6/6 511/6/6
f 512/6/6 513/6/6 520/6/6
f 513/1/6 514/1/6 520/1/6
f 514/6/6 515/6/6 521/6/6
f 520/1/6 514/1/6 521/1/6
f 517/1/6 518/1/6 522/1/6
f 516/6/6 517/6/6 522/6/6
f 518/6/6 519/6/6 523/6/6
f 522/1/6 518/1/6 523/1/6
f 512/6/6 520/6/6 524/6/6
f 520/6/6 521/6/6 524/6/6
f 521/6/6 515/6/6 525/6/6
f 524/6/6 521/6/6 525/6/6
f 516/6/6 522/6/6 526/6/6
f 522/6/6 523/6/6 526/6/6
f 523/6/6 519/6/6 527/6/6
f 526/6/6 523/6/6 527/6/6
