# MagicaVoxel @ Ephtracy

# group
o 

# material
mtllib Moss Stone block.mtl
usemtl palette

# normals
vn -1 0 0
vn 1 0 0
vn 0 0 1
vn 0 0 -1
vn 0 -1 0
vn 0 1 0

# texcoords
vt 0.568359 0.5
vt 0.970703 0.5
vt 0.974609 0.5
vt 0.978516 0.5

# verts
v -0.8 1.1 -0.4
v -0.8 1.1 -0.5
v -0.8 1.2 0.5
v -0.8 1.2 0.4
v -0.8 1.3 -0.3
v -0.8 1.3 -0.4
v -0.8 1.3 -0.5
v -0.8 1.3 -0.6
v -0.8 1.4 0.4
v -0.8 1.4 0.3
v -0.8 1.4 -0.0999999
v -0.8 1.4 -0.3
v -0.8 1.5 0.3
v -0.8 1.5 0.2
v -0.8 1.5 0.1
v -0.8 1.5 -0.0999999
v -0.8 1.6 0.5
v -0.8 1.6 0.2
v -0.8 1.6 0.1
v -0.8 1.6 -0.6
v -0.7 0.1 0.7
v -0.7 0.1 -0.7
v -0.7 0.2 5.96046e-08
v -0.7 0.2 -0.6
v -0.7 0.7 0.5
v -0.7 0.7 0.3
v -0.7 0.8 5.96046e-08
v -0.7 0.8 -0.6
v -0.7 0.9 0.5
v -0.7 0.9 0.3
v -0.7 1.1 0.3
v -0.7 1.1 5.96046e-08
v -0.7 1.1 -0.4
v -0.7 1.1 -0.5
v -0.7 1.2 0.5
v -0.7 1.2 0.4
v -0.7 1.3 -0.3
v -0.7 1.3 -0.4
v -0.7 1.3 -0.5
v -0.7 1.3 -0.6
v -0.7 1.4 0.4
v -0.7 1.4 0.3
v -0.7 1.4 5.96046e-08
v -0.7 1.4 -0.0999999
v -0.7 1.4 -0.3
v -0.7 1.5 0.7
v -0.7 1.5 0.5
v -0.7 1.5 0.3
v -0.7 1.5 0.2
v -0.7 1.5 0.1
v -0.7 1.5 -0.0999999
v -0.7 1.5 -0.6
v -0.7 1.5 -0.7
v -0.7 1.6 0.2
v -0.7 1.6 0.1
v -0.6 1.3 0.8
v -0.6 1.3 0.7
v -0.6 1.5 0.7
v -0.6 1.5 0.5
v -0.6 1.6 0.8
v -0.6 1.6 0.5
v -0.5 1.1 0.8
v -0.5 1.1 0.7
v -0.5 1.2 -0.7
v -0.5 1.2 -0.8
v -0.5 1.3 0.8
v -0.5 1.3 0.7
v -0.5 1.5 -0.6
v -0.5 1.5 -0.7
v -0.5 1.6 -0.6
v -0.5 1.6 -0.8
v -0.1 1.5 -0.7
v -0.1 1.5 -0.8
v -0.1 1.6 -0.7
v -0.1 1.6 -0.8
v 0.0999999 1.4 -0.7
v 0.0999999 1.4 -0.8
v 0.0999999 1.5 -0.7
v 0.0999999 1.5 -0.8
v 0.2 1.5 0.8
v 0.2 1.5 0.7
v 0.2 1.6 0.8
v 0.2 1.6 0.7
v 0.3 1.3 -0.7
v 0.3 1.3 -0.8
v 0.3 1.4 0.8
v 0.3 1.4 0.7
v 0.3 1.4 -0.7
v 0.3 1.4 -0.8
v 0.3 1.5 0.8
v 0.3 1.5 0.7
v 0.4 1.1 -0.7
v 0.4 1.1 -0.8
v 0.4 1.2 0.8
v 0.4 1.2 0.7
v 0.4 1.3 -0.7
v 0.4 1.3 -0.8
v 0.4 1.4 0.8
v 0.4 1.4 0.7
v -0.4 1.1 0.8
v -0.4 1.1 0.7
v -0.4 1.2 -0.7
v -0.4 1.2 -0.8
v -0.4 1.3 0.8
v -0.4 1.3 0.7
v -0.4 1.4 -0.7
v -0.4 1.4 -0.8
v -0.3 1.3 0.8
v -0.3 1.3 0.7
v -0.3 1.4 0.8
v -0.3 1.4 0.7
v -0.3 1.4 -0.7
v -0.3 1.4 -0.8
v -0.3 1.5 -0.7
v -0.3 1.5 -0.8
v -0.2 1.5 -0.7
v -0.2 1.5 -0.8
v -0.2 1.6 -0.7
v -0.2 1.6 -0.8
v -0.1 1.4 0.8
v -0.1 1.4 0.7
v -0.1 1.5 0.8
v -0.1 1.5 0.7
v 0.0999999 1.5 0.8
v 0.0999999 1.5 0.7
v 0.0999999 1.6 0.8
v 0.0999999 1.6 0.7
v 0.5 1.1 -0.7
v 0.5 1.1 -0.8
v 0.5 1.2 0.8
v 0.5 1.2 0.7
v 0.5 1.3 -0.7
v 0.5 1.3 -0.8
v 0.5 1.5 0.7
v 0.5 1.5 0.6
v 0.5 1.6 0.8
v 0.5 1.6 0.6
v 0.6 1.3 -0.7
v 0.6 1.3 -0.8
v 0.6 1.5 -0.5
v 0.6 1.5 -0.7
v 0.6 1.6 -0.5
v 0.6 1.6 -0.8
v 0.7 0.1 0.7
v 0.7 0.1 -0.7
v 0.7 0.2 0.6
v 0.7 0.2 5.96046e-08
v 0.7 0.7 -0.3
v 0.7 0.7 -0.5
v 0.7 0.8 0.6
v 0.7 0.8 5.96046e-08
v 0.7 0.9 -0.3
v 0.7 0.9 -0.5
v 0.7 1.1 0.5
v 0.7 1.1 0.4
v 0.7 1.1 5.96046e-08
v 0.7 1.1 -0.3
v 0.7 1.2 -0.4
v 0.7 1.2 -0.5
v 0.7 1.3 0.6
v 0.7 1.3 0.5
v 0.7 1.3 0.4
v 0.7 1.3 0.3
v 0.7 1.4 0.3
v 0.7 1.4 0.1
v 0.7 1.4 5.96046e-08
v 0.7 1.4 -0.3
v 0.7 1.4 -0.4
v 0.7 1.5 0.7
v 0.7 1.5 0.6
v 0.7 1.5 0.1
v 0.7 1.5 -0.0999999
v 0.7 1.5 -0.2
v 0.7 1.5 -0.3
v 0.7 1.5 -0.5
v 0.7 1.5 -0.7
v 0.7 1.6 -0.0999999
v 0.7 1.6 -0.2
v 0.8 1.1 0.5
v 0.8 1.1 0.4
v 0.8 1.2 -0.4
v 0.8 1.2 -0.5
v 0.8 1.3 0.6
v 0.8 1.3 0.5
v 0.8 1.3 0.4
v 0.8 1.3 0.3
v 0.8 1.4 0.3
v 0.8 1.4 0.1
v 0.8 1.4 -0.3
v 0.8 1.4 -0.4
v 0.8 1.5 0.1
v 0.8 1.5 -0.0999999
v 0.8 1.5 -0.2
v 0.8 1.5 -0.3
v 0.8 1.6 0.6
v 0.8 1.6 -0.0999999
v 0.8 1.6 -0.2
v 0.8 1.6 -0.5
v -0.6 1.3 0.8
v -0.6 1.6 0.8
v -0.5 1.1 0.8
v -0.5 1.3 0.8
v -0.4 1.1 0.8
v -0.4 1.3 0.8
v -0.3 1.3 0.8
v -0.3 1.4 0.8
v -0.1 1.4 0.8
v -0.1 1.5 0.8
v 0.0999999 1.5 0.8
v 0.0999999 1.6 0.8
v 0.2 1.5 0.8
v 0.2 1.6 0.8
v 0.3 1.4 0.8
v 0.3 1.5 0.8
v 0.4 1.2 0.8
v 0.4 1.4 0.8
v 0.5 1.2 0.8
v 0.5 1.6 0.8
v -0.7 0.1 0.7
v -0.7 1.5 0.7
v -0.6 0.2 0.7
v -0.6 0.8 0.7
v -0.6 1.3 0.7
v -0.6 1.5 0.7
v -0.5 1.1 0.7
v -0.5 1.3 0.7
v -0.4 1.1 0.7
v -0.4 1.3 0.7
v -0.3 1.3 0.7
v -0.3 1.4 0.7
v -0.1 1.4 0.7
v -0.1 1.5 0.7
v -5.96046e-08 0.2 0.7
v -5.96046e-08 0.8 0.7
v -5.96046e-08 1.1 0.7
v -5.96046e-08 1.4 0.7
v 0.0999999 1.5 0.7
v 0.0999999 1.6 0.7
v 0.2 1.5 0.7
v 0.2 1.6 0.7
v 0.3 0.7 0.7
v 0.3 0.9 0.7
v 0.3 1.1 0.7
v 0.3 1.4 0.7
v 0.3 1.5 0.7
v 0.4 1.2 0.7
v 0.4 1.4 0.7
v 0.5 0.7 0.7
v 0.5 0.9 0.7
v 0.5 1.2 0.7
v 0.5 1.5 0.7
v 0.7 0.1 0.7
v 0.7 1.5 0.7
v 0.5 1.5 0.6
v 0.5 1.6 0.6
v 0.7 1.3 0.6
v 0.7 1.5 0.6
v 0.8 1.3 0.6
v 0.8 1.6 0.6
v -0.8 1.2 0.5
v -0.8 1.6 0.5
v -0.7 1.2 0.5
v -0.7 1.5 0.5
v -0.6 1.5 0.5
v -0.6 1.6 0.5
v 0.7 1.1 0.5
v 0.7 1.3 0.5
v 0.8 1.1 0.5
v 0.8 1.3 0.5
v -0.8 1.5 0.1
v -0.8 1.6 0.1
v -0.7 1.5 0.1
v -0.7 1.6 0.1
v -0.8 1.4 -0.0999999
v -0.8 1.5 -0.0999999
v -0.7 1.4 -0.0999999
v -0.7 1.5 -0.0999999
v 0.7 1.5 -0.2
v 0.7 1.6 -0.2
v 0.8 1.5 -0.2
v 0.8 1.6 -0.2
v -0.8 1.3 -0.3
v -0.8 1.4 -0.3
v -0.7 1.3 -0.3
v -0.7 1.4 -0.3
v 0.7 1.4 -0.3
v 0.7 1.5 -0.3
v 0.8 1.4 -0.3
v 0.8 1.5 -0.3
v -0.8 1.1 -0.4
v -0.8 1.3 -0.4
v -0.7 1.1 -0.4
v -0.7 1.3 -0.4
v 0.7 1.2 -0.4
v 0.7 1.4 -0.4
v 0.8 1.2 -0.4
v 0.8 1.4 -0.4
v -0.8 1.2 0.4
v -0.8 1.4 0.4
v -0.7 1.2 0.4
v -0.7 1.4 0.4
v 0.7 1.1 0.4
v 0.7 1.3 0.4
v 0.8 1.1 0.4
v 0.8 1.3 0.4
v -0.8 1.4 0.3
v -0.8 1.5 0.3
v -0.7 1.4 0.3
v -0.7 1.5 0.3
v 0.7 1.3 0.3
v 0.7 1.4 0.3
v 0.8 1.3 0.3
v 0.8 1.4 0.3
v -0.8 1.5 0.2
v -0.8 1.6 0.2
v -0.7 1.5 0.2
v -0.7 1.6 0.2
v 0.7 1.4 0.1
v 0.7 1.5 0.1
v 0.8 1.4 0.1
v 0.8 1.5 0.1
v 0.7 1.5 -0.0999999
v 0.7 1.6 -0.0999999
v 0.8 1.5 -0.0999999
v 0.8 1.6 -0.0999999
v -0.8 1.1 -0.5
v -0.8 1.3 -0.5
v -0.7 1.1 -0.5
v -0.7 1.3 -0.5
v 0.6 1.5 -0.5
v 0.6 1.6 -0.5
v 0.7 1.2 -0.5
v 0.7 1.5 -0.5
v 0.8 1.2 -0.5
v 0.8 1.6 -0.5
v -0.8 1.3 -0.6
v -0.8 1.6 -0.6
v -0.7 1.3 -0.6
v -0.7 1.5 -0.6
v -0.5 1.5 -0.6
v -0.5 1.6 -0.6
v -0.7 0.1 -0.7
v -0.7 1.5 -0.7
v -0.5 0.7 -0.7
v -0.5 0.9 -0.7
v -0.5 1.2 -0.7
v -0.5 1.5 -0.7
v -0.4 1.2 -0.7
v -0.4 1.4 -0.7
v -0.3 0.7 -0.7
v -0.3 0.9 -0.7
v -0.3 1.1 -0.7
v -0.3 1.4 -0.7
v -0.3 1.5 -0.7
v -0.2 1.5 -0.7
v -0.2 1.6 -0.7
v -0.1 1.5 -0.7
v -0.1 1.6 -0.7
v -5.96046e-08 0.2 -0.7
v -5.96046e-08 0.8 -0.7
v -5.96046e-08 1.1 -0.7
v -5.96046e-08 1.4 -0.7
v 0.0999999 1.4 -0.7
v 0.0999999 1.5 -0.7
v 0.3 1.3 -0.7
v 0.3 1.4 -0.7
v 0.4 1.1 -0.7
v 0.4 1.3 -0.7
v 0.5 1.1 -0.7
v 0.5 1.3 -0.7
v 0.6 0.2 -0.7
v 0.6 0.8 -0.7
v 0.6 1.3 -0.7
v 0.6 1.5 -0.7
v 0.7 0.1 -0.7
v 0.7 1.5 -0.7
v -0.5 1.2 -0.8
v -0.5 1.6 -0.8
v -0.4 1.2 -0.8
v -0.4 1.4 -0.8
v -0.3 1.4 -0.8
v -0.3 1.5 -0.8
v -0.2 1.5 -0.8
v -0.2 1.6 -0.8
v -0.1 1.5 -0.8
v -0.1 1.6 -0.8
v 0.0999999 1.4 -0.8
v 0.0999999 1.5 -0.8
v 0.3 1.3 -0.8
v 0.3 1.4 -0.8
v 0.4 1.1 -0.8
v 0.4 1.3 -0.8
v 0.5 1.1 -0.8
v 0.5 1.3 -0.8
v 0.6 1.3 -0.8
v 0.6 1.6 -0.8
v -0.7 0.1 0.7
v 0.7 0.1 0.7
v -0.7 0.1 -0.7
v 0.7 0.1 -0.7
v -0.5 1.1 0.8
v -0.4 1.1 0.8
v -0.5 1.1 0.7
v -0.4 1.1 0.7
v 0.7 1.1 0.5
v 0.8 1.1 0.5
v 0.7 1.1 0.4
v 0.8 1.1 0.4
v -0.8 1.1 -0.4
v -0.7 1.1 -0.4
v -0.8 1.1 -0.5
v -0.7 1.1 -0.5
v 0.4 1.1 -0.7
v 0.5 1.1 -0.7
v 0.4 1.1 -0.8
v 0.5 1.1 -0.8
v 0.4 1.2 0.8
v 0.5 1.2 0.8
v 0.4 1.2 0.7
v 0.5 1.2 0.7
v -0.8 1.2 0.5
v -0.7 1.2 0.5
v -0.8 1.2 0.4
v -0.7 1.2 0.4
v 0.7 1.2 -0.4
v 0.8 1.2 -0.4
v 0.7 1.2 -0.5
v 0.8 1.2 -0.5
v -0.5 1.2 -0.7
v -0.4 1.2 -0.7
v -0.5 1.2 -0.8
v -0.4 1.2 -0.8
v -0.6 1.3 0.8
v -0.5 1.3 0.8
v -0.4 1.3 0.8
v -0.3 1.3 0.8
v -0.6 1.3 0.7
v -0.5 1.3 0.7
v -0.4 1.3 0.7
v -0.3 1.3 0.7
v 0.7 1.3 0.6
v 0.8 1.3 0.6
v 0.7 1.3 0.5
v 0.8 1.3 0.5
v 0.7 1.3 0.4
v 0.8 1.3 0.4
v 0.7 1.3 0.3
v 0.8 1.3 0.3
v -0.8 1.3 -0.3
v -0.7 1.3 -0.3
v -0.8 1.3 -0.4
v -0.7 1.3 -0.4
v -0.8 1.3 -0.5
v -0.7 1.3 -0.5
v -0.8 1.3 -0.6
v -0.7 1.3 -0.6
v 0.3 1.3 -0.7
v 0.4 1.3 -0.7
v 0.5 1.3 -0.7
v 0.6 1.3 -0.7
v 0.3 1.3 -0.8
v 0.4 1.3 -0.8
v 0.5 1.3 -0.8
v 0.6 1.3 -0.8
v -0.3 1.4 0.8
v -0.1 1.4 0.8
v 0.3 1.4 0.8
v 0.4 1.4 0.8
v -0.3 1.4 0.7
v -0.1 1.4 0.7
v 0.3 1.4 0.7
v 0.4 1.4 0.7
v -0.8 1.4 0.4
v -0.7 1.4 0.4
v -0.8 1.4 0.3
v -0.7 1.4 0.3
v 0.7 1.4 0.3
v 0.8 1.4 0.3
v 0.7 1.4 0.1
v 0.8 1.4 0.1
v -0.8 1.4 -0.0999999
v -0.7 1.4 -0.0999999
v -0.8 1.4 -0.3
v -0.7 1.4 -0.3
v 0.7 1.4 -0.3
v 0.8 1.4 -0.3
v 0.7 1.4 -0.4
v 0.8 1.4 -0.4
v -0.4 1.4 -0.7
v -0.3 1.4 -0.7
v 0.0999999 1.4 -0.7
v 0.3 1.4 -0.7
v -0.4 1.4 -0.8
v -0.3 1.4 -0.8
v 0.0999999 1.4 -0.8
v 0.3 1.4 -0.8
v -0.1 1.5 0.8
v 0.0999999 1.5 0.8
v 0.2 1.5 0.8
v 0.3 1.5 0.8
v -0.1 1.5 0.7
v 0.0999999 1.5 0.7
v 0.2 1.5 0.7
v 0.3 1.5 0.7
v -0.8 1.5 0.3
v -0.7 1.5 0.3
v -0.8 1.5 0.2
v -0.7 1.5 0.2
v -0.8 1.5 0.1
v -0.7 1.5 0.1
v 0.7 1.5 0.1
v 0.8 1.5 0.1
v -0.8 1.5 -0.0999999
v -0.7 1.5 -0.0999999
v 0.7 1.5 -0.0999999
v 0.8 1.5 -0.0999999
v 0.7 1.5 -0.2
v 0.8 1.5 -0.2
v 0.7 1.5 -0.3
v 0.8 1.5 -0.3
v -0.3 1.5 -0.7
v -0.2 1.5 -0.7
v -0.1 1.5 -0.7
v 0.0999999 1.5 -0.7
v -0.3 1.5 -0.8
v -0.2 1.5 -0.8
v -0.1 1.5 -0.8
v 0.0999999 1.5 -0.8
v -0.7 1.5 0.7
v -0.6 1.5 0.7
v 0.5 1.5 0.7
v 0.7 1.5 0.7
v 0.5 1.5 0.6
v 0.7 1.5 0.6
v -0.7 1.5 0.5
v -0.6 1.5 0.5
v 0.6 1.5 -0.5
v 0.7 1.5 -0.5
v -0.7 1.5 -0.6
v -0.5 1.5 -0.6
v -0.7 1.5 -0.7
v -0.5 1.5 -0.7
v 0.6 1.5 -0.7
v 0.7 1.5 -0.7
v -0.6 1.6 0.8
v 0.0999999 1.6 0.8
v 0.2 1.6 0.8
v 0.5 1.6 0.8
v 0.0999999 1.6 0.7
v 0.2 1.6 0.7
v 0.5 1.6 0.6
v 0.8 1.6 0.6
v -0.8 1.6 0.5
v -0.6 1.6 0.5
v -0.8 1.6 0.2
v -0.7 1.6 0.2
v -0.8 1.6 0.1
v -0.7 1.6 0.1
v 0.7 1.6 -0.0999999
v 0.8 1.6 -0.0999999
v 0.7 1.6 -0.2
v 0.8 1.6 -0.2
v 0.6 1.6 -0.5
v 0.8 1.6 -0.5
v -0.8 1.6 -0.6
v -0.5 1.6 -0.6
v -0.2 1.6 -0.7
v -0.1 1.6 -0.7
v -0.5 1.6 -0.8
v -0.2 1.6 -0.8
v -0.1 1.6 -0.8
v 0.6 1.6 -0.8

# faces
f 6/1/1 2/1/1 1/1/1
f 7/1/1 2/1/1 6/1/1
f 9/1/1 4/1/1 3/1/1
f 12/1/1 8/1/1 7/1/1
f 12/1/1 6/1/1 5/1/1
f 12/1/1 7/1/1 6/1/1
f 13/1/1 10/1/1 9/1/1
f 16/1/1 12/1/1 11/1/1
f 17/1/1 14/1/1 13/1/1
f 17/1/1 9/1/1 3/1/1
f 17/1/1 13/1/1 9/1/1
f 18/1/1 14/1/1 17/1/1
f 19/1/1 16/1/1 15/1/1
f 20/1/1 12/1/1 16/1/1
f 20/1/1 16/1/1 19/1/1
f 20/1/1 8/1/1 12/1/1
f 23/3/1 22/3/1 21/3/1
f 24/3/1 22/3/1 23/3/1
f 25/3/1 23/3/1 21/3/1
f 26/3/1 23/3/1 25/3/1
f 27/4/1 24/4/1 23/4/1
f 27/3/1 23/3/1 26/3/1
f 28/3/1 22/3/1 24/3/1
f 28/4/1 24/4/1 27/4/1
f 29/2/1 26/2/1 25/2/1
f 29/3/1 25/3/1 21/3/1
f 30/3/1 27/3/1 26/3/1
f 30/2/1 26/2/1 29/2/1
f 30/3/1 28/3/1 27/3/1
f 31/3/1 30/3/1 29/3/1
f 31/3/1 28/3/1 30/3/1
f 32/3/1 28/3/1 31/3/1
f 33/3/1 28/3/1 32/3/1
f 34/3/1 28/3/1 33/3/1
f 35/3/1 29/3/1 21/3/1
f 35/3/1 31/3/1 29/3/1
f 36/3/1 31/3/1 35/3/1
f 37/3/1 33/3/1 32/3/1
f 38/3/1 33/3/1 37/3/1
f 39/3/1 28/3/1 34/3/1
f 40/3/1 22/3/1 28/3/1
f 40/3/1 28/3/1 39/3/1
f 41/3/1 31/3/1 36/3/1
f 42/4/1 32/4/1 31/4/1
f 42/3/1 31/3/1 41/3/1
f 43/3/1 37/3/1 32/3/1
f 43/4/1 32/4/1 42/4/1
f 44/3/1 37/3/1 43/3/1
f 45/3/1 37/3/1 44/3/1
f 46/3/1 35/3/1 21/3/1
f 47/3/1 35/3/1 46/3/1
f 48/3/1 44/3/1 43/3/1
f 48/3/1 43/3/1 42/3/1
f 49/3/1 44/3/1 48/3/1
f 50/3/1 44/3/1 49/3/1
f 51/3/1 44/3/1 50/3/1
f 52/3/1 22/3/1 40/3/1
f 53/3/1 22/3/1 52/3/1
f 54/1/1 50/1/1 49/1/1
f 55/1/1 50/1/1 54/1/1
f 58/1/1 57/1/1 56/1/1
f 60/1/1 58/1/1 56/1/1
f 60/1/1 59/1/1 58/1/1
f 61/1/1 59/1/1 60/1/1
f 66/1/1 63/1/1 62/1/1
f 67/1/1 63/1/1 66/1/1
f 69/1/1 65/1/1 64/1/1
f 70/1/1 69/1/1 68/1/1
f 71/1/1 65/1/1 69/1/1
f 71/1/1 69/1/1 70/1/1
f 74/1/1 73/1/1 72/1/1
f 75/1/1 73/1/1 74/1/1
f 78/1/1 77/1/1 76/1/1
f 79/1/1 77/1/1 78/1/1
f 82/1/1 81/1/1 80/1/1
f 83/1/1 81/1/1 82/1/1
f 88/1/1 85/1/1 84/1/1
f 89/1/1 85/1/1 88/1/1
f 90/1/1 87/1/1 86/1/1
f 91/1/1 87/1/1 90/1/1
f 96/1/1 93/1/1 92/1/1
f 97/1/1 93/1/1 96/1/1
f 98/1/1 95/1/1 94/1/1
f 99/1/1 95/1/1 98/1/1
f 100/1/2 101/1/2 104/1/2
f 104/1/2 101/1/2 105/1/2
f 102/1/2 103/1/2 106/1/2
f 106/1/2 103/1/2 107/1/2
f 108/1/2 109/1/2 110/1/2
f 110/1/2 109/1/2 111/1/2
f 112/1/2 113/1/2 114/1/2
f 114/1/2 113/1/2 115/1/2
f 116/1/2 117/1/2 118/1/2
f 118/1/2 117/1/2 119/1/2
f 120/1/2 121/1/2 122/1/2
f 122/1/2 121/1/2 123/1/2
f 124/1/2 125/1/2 126/1/2
f 126/1/2 125/1/2 127/1/2
f 128/1/2 129/1/2 132/1/2
f 132/1/2 129/1/2 133/1/2
f 130/1/2 131/1/2 134/1/2
f 130/1/2 134/1/2 136/1/2
f 134/1/2 135/1/2 136/1/2
f 136/1/2 135/1/2 137/1/2
f 138/1/2 139/1/2 141/1/2
f 140/1/2 141/1/2 142/1/2
f 141/1/2 139/1/2 143/1/2
f 142/1/2 141/1/2 143/1/2
f 144/3/2 145/3/2 146/3/2
f 146/3/2 145/3/2 147/3/2
f 147/3/2 145/3/2 148/3/2
f 148/3/2 145/3/2 149/3/2
f 144/3/2 146/3/2 150/3/2
f 146/4/2 147/4/2 150/4/2
f 147/3/2 148/3/2 151/3/2
f 150/4/2 147/4/2 151/4/2
f 148/2/2 149/2/2 152/2/2
f 151/3/2 148/3/2 152/3/2
f 150/3/2 151/3/2 152/3/2
f 149/3/2 145/3/2 153/3/2
f 152/2/2 149/2/2 153/2/2
f 150/3/2 152/3/2 154/3/2
f 152/3/2 153/3/2 154/3/2
f 154/3/2 153/3/2 155/3/2
f 155/3/2 153/3/2 156/3/2
f 156/3/2 153/3/2 157/3/2
f 157/3/2 153/3/2 158/3/2
f 153/3/2 145/3/2 159/3/2
f 158/3/2 153/3/2 159/3/2
f 144/3/2 150/3/2 160/3/2
f 150/3/2 154/3/2 160/3/2
f 160/3/2 154/3/2 161/3/2
f 155/3/2 156/3/2 162/3/2
f 162/3/2 156/3/2 163/3/2
f 163/3/2 156/3/2 164/3/2
f 164/3/2 156/3/2 165/3/2
f 156/4/2 157/4/2 166/4/2
f 165/3/2 156/3/2 166/3/2
f 157/3/2 158/3/2 167/3/2
f 166/4/2 157/4/2 167/4/2
f 167/3/2 158/3/2 168/3/2
f 144/3/2 160/3/2 169/3/2
f 169/3/2 160/3/2 170/3/2
f 165/3/2 166/3/2 171/3/2
f 166/3/2 167/3/2 171/3/2
f 171/3/2 167/3/2 172/3/2
f 172/3/2 167/3/2 173/3/2
f 173/3/2 167/3/2 174/3/2
f 159/3/2 145/3/2 175/3/2
f 175/3/2 145/3/2 176/3/2
f 172/1/2 173/1/2 177/1/2
f 177/1/2 173/1/2 178/1/2
f 179/1/2 180/1/2 184/1/2
f 184/1/2 180/1/2 185/1/2
f 183/1/2 184/1/2 187/1/2
f 185/1/2 186/1/2 187/1/2
f 184/1/2 185/1/2 187/1/2
f 181/1/2 182/1/2 190/1/2
f 187/1/2 188/1/2 191/1/2
f 189/1/2 190/1/2 194/1/2
f 191/1/2 192/1/2 195/1/2
f 183/1/2 187/1/2 195/1/2
f 187/1/2 191/1/2 195/1/2
f 195/1/2 192/1/2 196/1/2
f 193/1/2 194/1/2 197/1/2
f 194/1/2 190/1/2 198/1/2
f 197/1/2 194/1/2 198/1/2
f 190/1/2 182/1/2 198/1/2
f 202/1/3 200/1/3 199/1/3
f 203/1/3 202/1/3 201/1/3
f 204/1/3 200/1/3 202/1/3
f 204/1/3 202/1/3 203/1/3
f 205/1/3 200/1/3 204/1/3
f 206/1/3 200/1/3 205/1/3
f 207/1/3 200/1/3 206/1/3
f 208/1/3 200/1/3 207/1/3
f 209/1/3 200/1/3 208/1/3
f 210/1/3 200/1/3 209/1/3
f 214/1/3 212/1/3 211/1/3
f 216/1/3 214/1/3 213/1/3
f 217/1/3 216/1/3 215/1/3
f 218/1/3 212/1/3 214/1/3
f 218/1/3 216/1/3 217/1/3
f 218/1/3 214/1/3 216/1/3
f 221/3/3 220/3/3 219/3/3
f 222/3/3 220/3/3 221/3/3
f 223/3/3 220/3/3 222/3/3
f 224/3/3 220/3/3 223/3/3
f 225/3/3 223/3/3 222/3/3
f 226/3/3 223/3/3 225/3/3
f 227/3/3 225/3/3 222/3/3
f 229/3/3 228/3/3 227/3/3
f 231/3/3 230/3/3 229/3/3
f 233/3/3 221/3/3 219/3/3
f 233/4/3 222/4/3 221/4/3
f 234/3/3 232/3/3 231/3/3
f 234/4/3 222/4/3 233/4/3
f 234/3/3 231/3/3 229/3/3
f 234/3/3 227/3/3 222/3/3
f 234/3/3 229/3/3 227/3/3
f 235/3/3 232/3/3 234/3/3
f 236/3/3 232/3/3 235/3/3
f 237/3/3 232/3/3 236/3/3
f 239/3/3 237/3/3 236/3/3
f 239/1/3 238/1/3 237/1/3
f 240/1/3 238/1/3 239/1/3
f 241/3/3 234/3/3 233/3/3
f 241/3/3 235/3/3 234/3/3
f 242/3/3 235/3/3 241/3/3
f 243/4/3 236/4/3 235/4/3
f 243/3/3 235/3/3 242/3/3
f 244/3/3 239/3/3 236/3/3
f 244/4/3 236/4/3 243/4/3
f 245/3/3 239/3/3 244/3/3
f 246/3/3 243/3/3 242/3/3
f 246/3/3 244/3/3 243/3/3
f 247/3/3 244/3/3 246/3/3
f 248/2/3 242/2/3 241/2/3
f 248/3/3 241/3/3 233/3/3
f 249/3/3 246/3/3 242/3/3
f 249/2/3 242/2/3 248/2/3
f 250/3/3 246/3/3 249/3/3
f 252/3/3 233/3/3 219/3/3
f 252/3/3 251/3/3 250/3/3
f 252/3/3 249/3/3 248/3/3
f 252/3/3 248/3/3 233/3/3
f 252/3/3 250/3/3 249/3/3
f 253/3/3 251/3/3 252/3/3
f 257/1/3 255/1/3 254/1/3
f 258/1/3 257/1/3 256/1/3
f 259/1/3 255/1/3 257/1/3
f 259/1/3 257/1/3 258/1/3
f 262/1/3 261/1/3 260/1/3
f 263/1/3 261/1/3 262/1/3
f 264/1/3 261/1/3 263/1/3
f 265/1/3 261/1/3 264/1/3
f 268/1/3 267/1/3 266/1/3
f 269/1/3 267/1/3 268/1/3
f 272/1/3 271/1/3 270/1/3
f 273/1/3 271/1/3 272/1/3
f 276/1/3 275/1/3 274/1/3
f 277/1/3 275/1/3 276/1/3
f 280/1/3 279/1/3 278/1/3
f 281/1/3 279/1/3 280/1/3
f 284/1/3 283/1/3 282/1/3
f 285/1/3 283/1/3 284/1/3
f 288/1/3 287/1/3 286/1/3
f 289/1/3 287/1/3 288/1/3
f 292/1/3 291/1/3 290/1/3
f 293/1/3 291/1/3 292/1/3
f 296/1/3 295/1/3 294/1/3
f 297/1/3 295/1/3 296/1/3
f 298/1/4 299/1/4 300/1/4
f 300/1/4 299/1/4 301/1/4
f 302/1/4 303/1/4 304/1/4
f 304/1/4 303/1/4 305/1/4
f 306/1/4 307/1/4 308/1/4
f 308/1/4 307/1/4 309/1/4
f 310/1/4 311/1/4 312/1/4
f 312/1/4 311/1/4 313/1/4
f 314/1/4 315/1/4 316/1/4
f 316/1/4 315/1/4 317/1/4
f 318/1/4 319/1/4 320/1/4
f 320/1/4 319/1/4 321/1/4
f 322/1/4 323/1/4 324/1/4
f 324/1/4 323/1/4 325/1/4
f 326/1/4 327/1/4 328/1/4
f 328/1/4 327/1/4 329/1/4
f 330/1/4 331/1/4 333/1/4
f 332/1/4 333/1/4 334/1/4
f 333/1/4 331/1/4 335/1/4
f 334/1/4 333/1/4 335/1/4
f 336/1/4 337/1/4 338/1/4
f 338/1/4 337/1/4 339/1/4
f 339/1/4 337/1/4 340/1/4
f 340/1/4 337/1/4 341/1/4
f 342/3/4 343/3/4 344/3/4
f 344/3/4 343/3/4 345/3/4
f 345/3/4 343/3/4 346/3/4
f 346/3/4 343/3/4 347/3/4
f 345/3/4 346/3/4 348/3/4
f 342/3/4 344/3/4 350/3/4
f 344/2/4 345/2/4 350/2/4
f 348/3/4 349/3/4 351/3/4
f 350/2/4 345/2/4 351/2/4
f 345/3/4 348/3/4 351/3/4
f 351/3/4 349/3/4 352/3/4
f 352/3/4 349/3/4 353/3/4
f 353/3/4 354/3/4 355/3/4
f 353/3/4 355/3/4 357/3/4
f 355/1/4 356/1/4 357/1/4
f 357/1/4 356/1/4 358/1/4
f 342/3/4 350/3/4 359/3/4
f 350/3/4 351/3/4 359/3/4
f 351/3/4 352/3/4 359/3/4
f 359/3/4 352/3/4 360/3/4
f 352/4/4 353/4/4 361/4/4
f 360/3/4 352/3/4 361/3/4
f 353/3/4 357/3/4 362/3/4
f 361/4/4 353/4/4 362/4/4
f 360/3/4 361/3/4 363/3/4
f 362/3/4 357/3/4 363/3/4
f 361/3/4 362/3/4 363/3/4
f 363/3/4 357/3/4 364/3/4
f 360/3/4 363/3/4 365/3/4
f 365/3/4 363/3/4 366/3/4
f 360/3/4 365/3/4 367/3/4
f 367/3/4 365/3/4 368/3/4
f 360/3/4 367/3/4 369/3/4
f 359/4/4 360/4/4 371/4/4
f 342/3/4 359/3/4 371/3/4
f 369/3/4 370/3/4 372/3/4
f 371/4/4 360/4/4 372/4/4
f 360/3/4 369/3/4 372/3/4
f 372/3/4 370/3/4 373/3/4
f 342/3/4 371/3/4 375/3/4
f 373/3/4 374/3/4 375/3/4
f 371/3/4 372/3/4 375/3/4
f 372/3/4 373/3/4 375/3/4
f 375/3/4 374/3/4 376/3/4
f 377/1/4 378/1/4 379/1/4
f 379/1/4 378/1/4 380/1/4
f 380/1/4 378/1/4 381/1/4
f 381/1/4 378/1/4 382/1/4
f 382/1/4 378/1/4 383/1/4
f 383/1/4 378/1/4 384/1/4
f 385/1/4 386/1/4 388/1/4
f 387/1/4 388/1/4 390/1/4
f 389/1/4 390/1/4 392/1/4
f 391/1/4 392/1/4 393/1/4
f 392/1/4 390/1/4 394/1/4
f 393/1/4 392/1/4 394/1/4
f 394/1/4 390/1/4 395/1/4
f 388/1/4 386/1/4 396/1/4
f 395/1/4 390/1/4 396/1/4
f 390/1/4 388/1/4 396/1/4
f 399/3/5 398/3/5 397/3/5
f 400/3/5 398/3/5 399/3/5
f 403/1/5 402/1/5 401/1/5
f 404/1/5 402/1/5 403/1/5
f 407/1/5 406/1/5 405/1/5
f 408/1/5 406/1/5 407/1/5
f 411/1/5 410/1/5 409/1/5
f 412/1/5 410/1/5 411/1/5
f 415/1/5 414/1/5 413/1/5
f 416/1/5 414/1/5 415/1/5
f 419/1/5 418/1/5 417/1/5
f 420/1/5 418/1/5 419/1/5
f 423/1/5 422/1/5 421/1/5
f 424/1/5 422/1/5 423/1/5
f 427/1/5 426/1/5 425/1/5
f 428/1/5 426/1/5 427/1/5
f 431/1/5 430/1/5 429/1/5
f 432/1/5 430/1/5 431/1/5
f 437/1/5 434/1/5 433/1/5
f 438/1/5 434/1/5 437/1/5
f 439/1/5 436/1/5 435/1/5
f 440/1/5 436/1/5 439/1/5
f 443/1/5 442/1/5 441/1/5
f 444/1/5 442/1/5 443/1/5
f 447/1/5 446/1/5 445/1/5
f 448/1/5 446/1/5 447/1/5
f 451/1/5 450/1/5 449/1/5
f 452/1/5 450/1/5 451/1/5
f 455/1/5 454/1/5 453/1/5
f 456/1/5 454/1/5 455/1/5
f 461/1/5 458/1/5 457/1/5
f 462/1/5 458/1/5 461/1/5
f 463/1/5 460/1/5 459/1/5
f 464/1/5 460/1/5 463/1/5
f 469/1/5 466/1/5 465/1/5
f 470/1/5 466/1/5 469/1/5
f 471/1/5 468/1/5 467/1/5
f 472/1/5 468/1/5 471/1/5
f 475/1/5 474/1/5 473/1/5
f 476/1/5 474/1/5 475/1/5
f 479/1/5 478/1/5 477/1/5
f 480/1/5 478/1/5 479/1/5
f 483/1/5 482/1/5 481/1/5
f 484/1/5 482/1/5 483/1/5
f 487/1/5 486/1/5 485/1/5
f 488/1/5 486/1/5 487/1/5
f 493/1/5 490/1/5 489/1/5
f 494/1/5 490/1/5 493/1/5
f 495/1/5 492/1/5 491/1/5
f 496/1/5 492/1/5 495/1/5
f 501/1/5 498/1/5 497/1/5
f 502/1/5 498/1/5 501/1/5
f 503/1/5 500/1/5 499/1/5
f 504/1/5 500/1/5 503/1/5
f 507/1/5 506/1/5 505/1/5
f 508/1/5 506/1/5 507/1/5
f 513/1/5 510/1/5 509/1/5
f 514/1/5 510/1/5 513/1/5
f 515/1/5 512/1/5 511/1/5
f 516/1/5 512/1/5 515/1/5
f 519/1/5 518/1/5 517/1/5
f 520/1/5 518/1/5 519/1/5
f 525/1/5 522/1/5 521/1/5
f 526/1/5 522/1/5 525/1/5
f 527/1/5 524/1/5 523/1/5
f 528/1/5 524/1/5 527/1/5
f 531/3/6 532/3/6 533/3/6
f 533/3/6 532/3/6 534/3/6
f 529/3/6 530/3/6 535/3/6
f 535/3/6 530/3/6 536/3/6
f 539/3/6 540/3/6 541/3/6
f 541/3/6 540/3/6 542/3/6
f 537/3/6 538/3/6 543/3/6
f 543/3/6 538/3/6 544/3/6
f 545/1/6 546/1/6 549/1/6
f 547/1/6 548/1/6 550/1/6
f 550/1/6 548/1/6 551/1/6
f 549/1/6 550/1/6 551/1/6
f 545/1/6 549/1/6 554/1/6
f 551/1/6 552/1/6 554/1/6
f 549/1/6 551/1/6 554/1/6
f 553/1/6 554/1/6 555/1/6
f 555/1/6 554/1/6 556/1/6
f 556/1/6 554/1/6 558/1/6
f 554/1/6 552/1/6 559/1/6
f 557/1/6 558/1/6 559/1/6
f 558/1/6 554/1/6 559/1/6
f 559/1/6 552/1/6 560/1/6
f 557/1/6 559/1/6 561/1/6
f 557/1/6 561/1/6 563/1/6
f 561/1/6 562/1/6 563/1/6
f 563/1/6 562/1/6 564/1/6
f 557/1/6 563/1/6 565/1/6
f 565/1/6 563/1/6 566/1/6
f 566/1/6 563/1/6 567/1/6
f 567/1/6 563/1/6 568/1/6
f 566/1/6 567/1/6 569/1/6
f 569/1/6 567/1/6 570/1/6
f 568/1/6 563/1/6 571/1/6
f 571/1/6 563/1/6 572/1/6
